<svg id="Capa_1" data-name="Capa 1" xmlns="http://www.w3.org/2000/svg" viewBox="0 0 179 71.13">
  <title>phoneemail</title>
  <path d="M161.33,203.12a30.41,30.41,0,0,1-10.92-2,4.5,4.5,0,0,0-4.85,1.19l-6.89,6c-8-5-12.9-10.66-17.11-19.87l5-7.79a6.39,6.39,0,0,0,1.21-5.82,46.81,46.81,0,0,1-1.74-12.71c0-3.14-2.21-5.7-4.92-5.7H109.91c-2.71,0-4.91,2.56-4.91,5.7,0,36.08,25.27,65.42,56.33,65.42,2.71,0,4.92-2.56,4.92-5.7v-13C166.25,205.68,164,203.12,161.33,203.12Z" transform="translate(-105 -156.44)"/>
  <g>
    <path d="M198.82,166.45c11.94,9.45,32.89,26.08,39.05,31.27a4,4,0,0,0,2.63,1.06,4.08,4.08,0,0,0,2.63-1.05c6.16-5.19,27.11-21.83,39.05-31.28a1.62,1.62,0,0,0,.26-2.34,7.39,7.39,0,0,0-5.69-2.61h-72.5a7.39,7.39,0,0,0-5.69,2.61A1.62,1.62,0,0,0,198.82,166.45Z" transform="translate(-105 -156.44)"/>
    <path d="M283,171.57a1.89,1.89,0,0,0-1.93.25c-13.25,10.49-30.15,23.94-35.46,28.42a7.72,7.72,0,0,1-10.12,0c-5.67-4.78-24.65-19.86-35.46-28.42a1.92,1.92,0,0,0-1.93-.25,1.7,1.7,0,0,0-1.05,1.54v42.61a7,7,0,0,0,7.25,6.78h72.5a7,7,0,0,0,7.25-6.78V173.11A1.7,1.7,0,0,0,283,171.57Z" transform="translate(-105 -156.44)"/>
  </g>
</svg>
