<svg id="Layer_1" data-name="Layer 1" xmlns="http://www.w3.org/2000/svg" viewBox="0 0 1919.79 388.26">
  <title>finallandingbanner</title>
  <rect width="1919.79" height="388.26" style="fill: #989797"/>
  <path d="M467,162.77v11.9a27.64,27.64,0,0,1-3.13,13.38,21.83,21.83,0,0,1-8.86,9,26.92,26.92,0,0,1-13.28,3.1,28.69,28.69,0,0,1-13.46-3,21.35,21.35,0,0,1-9-8.41,24.6,24.6,0,0,1-3.1-12.59V156.06a27.58,27.58,0,0,1,3.1-13.36,22,22,0,0,1,8.86-8.93,27,27,0,0,1,13.27-3.16,26,26,0,0,1,11.48,2.54,23.91,23.91,0,0,1,8.76,7.1,25.5,25.5,0,0,1,4.76,10.64h-11a14.45,14.45,0,0,0-14-10.92,15.05,15.05,0,0,0-7.84,2,13.65,13.65,0,0,0-5.21,5.65,18.64,18.64,0,0,0-1.84,8.46v20.07a15.25,15.25,0,0,0,1.89,7.71,13,13,0,0,0,5.34,5.14,16.74,16.74,0,0,0,8,1.82,15.67,15.67,0,0,0,7.85-1.9,12.75,12.75,0,0,0,5.21-5.5,18.68,18.68,0,0,0,1.83-8.58v-3H442v-9.14Z" transform="translate(-0.21)" style="fill: #fff"/>
  <path d="M482.39,150.81h10.12v48.66H482.39Zm25,9.19a12.88,12.88,0,0,0-4.72-.8q-4.8,0-7.47,2.51a9.12,9.12,0,0,0-2.66,7l-1-9.37a18.17,18.17,0,0,1,6.16-6.78,15.17,15.17,0,0,1,8.27-2.41,20.31,20.31,0,0,1,6.38,1,14.45,14.45,0,0,1,5,2.84l-6.6,8.43a8.46,8.46,0,0,0-3.39-2.42Z" transform="translate(-0.21)" style="fill: #f2f2f2"/>
  <path d="M533.07,197.69a16.8,16.8,0,0,1-7.27-7.25A24.43,24.43,0,0,1,523.27,179v-7.92a23.89,23.89,0,0,1,2.51-11.32,16.78,16.78,0,0,1,7.27-7.17,28,28,0,0,1,22.93,0,16.86,16.86,0,0,1,7.28,7.17,23.88,23.88,0,0,1,2.5,11.32v8.09a23.81,23.81,0,0,1-2.5,11.37,17,17,0,0,1-7.28,7.2,27.72,27.72,0,0,1-22.93,0Zm19.68-9.75c1.94-2.1,2.91-5,2.91-8.82v-8.06q0-5.67-2.91-8.76c-1.94-2.06-4.67-3.09-8.21-3.1s-6.28,1-8.22,3.1-2.9,5-2.9,8.76v8.09c0,3.79,1,6.72,2.9,8.82s4.67,3.14,8.22,3.14S550.82,190,552.75,187.94Z" transform="translate(-0.21)" style="fill: #f2f2f2"/>
  <path d="M573.72,150.81h10.55l9.13,34.74,12.87-34.74h7.05l12.85,34.74,9.14-34.74h10.57L630,199.47h-7.63l-12.56-33.61-12.54,33.61h-7.64Z" transform="translate(-0.21)" style="fill: #f2f2f2"/>
  <path d="M686.36,196.44q-4.73-3.72-4.72-11.32,0-7.22,4.32-10.82T699,170.69h14.64l.69,7.68H699.06q-4,0-5.93,1.67a6.32,6.32,0,0,0-2,5.08,6.18,6.18,0,0,0,2.61,5.49c1.74,1.19,4.37,1.78,7.92,1.78,3.87,0,6.75-.39,8.66-1.17s2.85-2,2.85-3.66l1,6.85a11.41,11.41,0,0,1-3.3,3.23,14.41,14.41,0,0,1-4.54,1.9,24.63,24.63,0,0,1-5.81.63Q691.09,200.16,686.36,196.44Zm26.85-27.82a10,10,0,0,0-2.7-7.43c-1.81-1.76-4.36-2.64-7.67-2.64a20.71,20.71,0,0,0-6,.89,18.53,18.53,0,0,0-5.24,2.48l-7.43-4.77a19.59,19.59,0,0,1,7.72-5.18,29.54,29.54,0,0,1,10.65-1.82,25.8,25.8,0,0,1,11,2.13,15.36,15.36,0,0,1,7,6.19,19,19,0,0,1,2.38,9.77v31.27h-9.63Z" transform="translate(-0.21)" style="fill: #f2f2f2"/>
  <path d="M738.27,150.81H748.4v48.66H738.27ZM769.54,170c0-3.43-.94-6.09-2.83-8s-4.53-2.82-7.94-2.82-5.87.83-7.67,2.49a9,9,0,0,0-2.7,7l-1.13-9.35a17.79,17.79,0,0,1,6.23-6.8,16,16,0,0,1,8.52-2.39q8.38,0,13,5.18t4.59,14.65v29.53H769.5Z" transform="translate(-0.21)" style="fill: #f2f2f2"/>
  <path d="M830.61,197.69a16.8,16.8,0,0,1-7.27-7.25A24.3,24.3,0,0,1,820.83,179v-7.92a23.89,23.89,0,0,1,2.51-11.32,16.78,16.78,0,0,1,7.27-7.17,28,28,0,0,1,22.93,0,16.73,16.73,0,0,1,7.27,7.17,23.65,23.65,0,0,1,2.51,11.32v8.09a23.7,23.7,0,0,1-2.51,11.37,16.85,16.85,0,0,1-7.27,7.2,27.72,27.72,0,0,1-22.93,0Zm19.66-9.75c1.94-2.1,2.91-5,2.91-8.82v-8.06q0-5.67-2.91-8.76c-1.94-2.06-4.67-3.09-8.21-3.1s-6.28,1-8.22,3.1-2.9,5-2.9,8.76v8.09c0,3.79,1,6.72,2.9,8.82s4.67,3.14,8.22,3.14S848.36,190,850.27,187.94Z" transform="translate(-0.21)" style="fill: #f2f2f2"/>
  <path d="M877.72,150.81h10.12v48.66H877.72ZM909,170c0-3.43-.94-6.09-2.83-8s-4.53-2.82-7.94-2.82-5.87.83-7.67,2.49a9,9,0,0,0-2.71,7l-1-9.37a17.79,17.79,0,0,1,6.23-6.8,15.93,15.93,0,0,1,8.52-2.39q8.38,0,13,5.18t4.59,14.65v29.53H909Z" transform="translate(-0.21)" style="fill: #f2f2f2"/>
  <path d="M944.63,186.91a4.12,4.12,0,0,0,.82,2.74,2.88,2.88,0,0,0,2.31,1h4.76v9.09h-6q-5.76,0-8.91-3.37t-3.15-9.52v-55.5h10.12Z" transform="translate(-0.21)" style="fill: #f2f2f2"/>
  <path d="M963.94,131.31h10.13v9.56H963.94Zm0,19.5h10.13v48.66H963.94Z" transform="translate(-0.21)" style="fill: #f2f2f2"/>
  <path d="M989.46,150.81h10.12v48.66H989.46ZM1020.73,170c0-3.43-.94-6.09-2.83-8s-4.53-2.82-7.94-2.82-5.87.83-7.67,2.49a9,9,0,0,0-2.71,7l-1-9.37a17.79,17.79,0,0,1,6.23-6.8,15.89,15.89,0,0,1,8.46-2.33q8.4,0,13,5.18t4.6,14.65v29.53h-10.13Z" transform="translate(-0.21)" style="fill: #f2f2f2"/>
  <path d="M1060.19,200.15l-5.06-2.53a17.38,17.38,0,0,1-7.72-7.43,24.55,24.55,0,0,1-2.65-11.84v-5.48a27.47,27.47,0,0,1,2.55-12.33,17.76,17.76,0,0,1,7.42-7.78,24,24,0,0,1,11.72-2.67,19.35,19.35,0,0,1,11,3,19.06,19.06,0,0,1,7,8.81,35.74,35.74,0,0,1,2.41,13.83V179h-34.75v-7.68h25.16q-.45-6-3.25-9.26a9.38,9.38,0,0,0-7.52-3.31q-5.76,0-8.91,3.57t-3.15,10.07v6.19q0,6,3.37,9.28t9.58,3.24a16.59,16.59,0,0,0,6.11-1.17,17.65,17.65,0,0,0,5.41-3.29l6.65,6.29a28,28,0,0,1-8.59,5.36,25.57,25.57,0,0,1-9.58,1.9Z" transform="translate(-0.21)" style="fill: #f2f2f2"/>
  <path d="M1128.05,149.82h10.43v70.45h-10.43Zm15.12,48.56a13.34,13.34,0,0,1-5.41-6.34l.72-10.46a11.37,11.37,0,0,0,1.22,5.49,8.2,8.2,0,0,0,3.55,3.47,12,12,0,0,0,5.64,1.21c3.45,0,6.11-1,8-3s2.84-4.77,2.84-8.37V169.55c0-3.66-.94-6.51-2.84-8.53s-4.55-3.09-8-3.09a12.64,12.64,0,0,0-5.64,1.17,8,8,0,0,0-3.55,3.39,11.08,11.08,0,0,0-1.22,5.39l-1.08-9.65a17.82,17.82,0,0,1,6.29-6.78,16,16,0,0,1,8.63-2.39,18.58,18.58,0,0,1,9.64,2.39,15.25,15.25,0,0,1,6.1,7,26.49,26.49,0,0,1,2.06,11.05v10.9a25.35,25.35,0,0,1-2.11,11,15.42,15.42,0,0,1-6.29,6.93,19.46,19.46,0,0,1-9.91,2.39A16.28,16.28,0,0,1,1143.17,198.38Z" transform="translate(-0.21)" style="fill: #2dcace"/>
  <path d="M1185,149.82h10.43v50.09H1185ZM1208.35,160a12.88,12.88,0,0,0-4.72-.8q-4.82,0-7.47,2.51a9.14,9.14,0,0,0-2.65,7l-1-9.37a18.17,18.17,0,0,1,6.16-6.78,15.15,15.15,0,0,1,8.34-2.41,20.31,20.31,0,0,1,6.38,1,14.62,14.62,0,0,1,5,2.84l-6.61,8.43a8.5,8.5,0,0,0-3.46-2.42Z" transform="translate(-0.21)" style="fill: #2dcace"/>
  <path d="M1239.69,200.15l-5.06-2.53a17.38,17.38,0,0,1-7.72-7.43,24.56,24.56,0,0,1-2.66-11.84v-5.48a27.35,27.35,0,0,1,2.56-12.33,17.71,17.71,0,0,1,7.42-7.78,24.09,24.09,0,0,1,11.71-2.67,19.35,19.35,0,0,1,11,3,19.06,19.06,0,0,1,7,8.81,35.74,35.74,0,0,1,2.41,13.83V179H1231.6v-7.68h25.12q-.45-6-3.25-9.26a9.4,9.4,0,0,0-7.53-3.31q-5.75,0-8.91,3.57t-3.15,10.07v6.19q0,6,3.38,9.28t9.58,3.24a16.54,16.54,0,0,0,6.1-1.17,17.65,17.65,0,0,0,5.41-3.29l6.66,6.29a28,28,0,0,1-8.59,5.36,25.57,25.57,0,0,1-9.58,1.9Z" transform="translate(-0.21)" style="fill: #2dcace"/>
  <path d="M1293.9,200.15l-4-.84a32,32,0,0,1-7.47-2.53,29.31,29.31,0,0,1-6.4-4.22l6-7a34.35,34.35,0,0,0,8.29,4.5,23.61,23.61,0,0,0,8.14,1.5q6,0,9-1.75a5.72,5.72,0,0,0,3-5.28,4,4,0,0,0-1.64-3.51,9.49,9.49,0,0,0-4.07-1.57c-1.62-.27-3.91-.51-6.85-.73h-.85l-.84-.07h-.79a42.13,42.13,0,0,1-8.49-1.38,11.58,11.58,0,0,1-5.79-3.78q-2.3-2.76-2.3-7.92a15.43,15.43,0,0,1,2.23-8.58,13.53,13.53,0,0,1,6.65-5.13,31.35,31.35,0,0,1,11.07-1.71,41.07,41.07,0,0,1,7.67.7,36.16,36.16,0,0,1,7,2.09,35.19,35.19,0,0,1,6.41,3.49l-6.11,7a35.08,35.08,0,0,0-7.62-3.51,24.52,24.52,0,0,0-7.32-1.17c-3.44,0-6,.56-7.74,1.66a5.57,5.57,0,0,0-2.58,5,3.31,3.31,0,0,0,1.46,3,8.93,8.93,0,0,0,3.7,1.31q2.23.33,6.35.56a4.32,4.32,0,0,0,.62.05,4.91,4.91,0,0,1,.67,0h.6a46.86,46.86,0,0,1,9.21,1.36,12.53,12.53,0,0,1,6.38,4.08q2.58,3,2.58,8.81a15,15,0,0,1-2.39,8.7,14.31,14.31,0,0,1-7.17,5.18,35.65,35.65,0,0,1-12,1.73Z" transform="translate(-0.21)" style="fill: #2dcace"/>
  <path d="M1346.91,200.15l-5.06-2.53a17.38,17.38,0,0,1-7.72-7.43,24.56,24.56,0,0,1-2.66-11.84v-5.48a27.48,27.48,0,0,1,2.56-12.33,17.71,17.71,0,0,1,7.42-7.78,24.07,24.07,0,0,1,11.72-2.61,19.35,19.35,0,0,1,11,3,19.06,19.06,0,0,1,7,8.81,35.74,35.74,0,0,1,2.41,13.83V179h-34.75v-7.68H1364q-.45-6-3.25-9.26a9.38,9.38,0,0,0-7.52-3.31q-5.76,0-8.91,3.57t-3.16,10.07v6.19q0,6,3.38,9.28t9.58,3.24a16.59,16.59,0,0,0,6.11-1.17,17.85,17.85,0,0,0,5.41-3.29l6.65,6.29a28,28,0,0,1-8.59,5.36,25.57,25.57,0,0,1-9.58,1.9Z" transform="translate(-0.21)" style="fill: #2dcace"/>
  <path d="M1387.47,150.81h10.12v48.66h-10.12ZM1418.74,170c0-3.43-.94-6.09-2.83-8s-4.53-2.82-7.94-2.82-5.87.83-7.67,2.49a9,9,0,0,0-2.71,7l-1-9.37a17.79,17.79,0,0,1,6.23-6.8,15.92,15.92,0,0,1,8.45-2.33q8.4,0,13,5.18t4.6,14.65v29.53h-10.13Z" transform="translate(-0.21)" style="fill: #2dcace"/>
  <path d="M1458,200.15l-5-2.48a17.37,17.37,0,0,1-7.62-7.22,23.19,23.19,0,0,1-2.63-11.44v-8a22.69,22.69,0,0,1,2.63-11.3,17.27,17.27,0,0,1,7.62-7.15,27,27,0,0,1,12-2.46,30.63,30.63,0,0,1,7.57.91,23.34,23.34,0,0,1,6.38,2.65,16.86,16.86,0,0,1,4.72,4.22l-7.3,6.19a15.34,15.34,0,0,0-11.22-4.88q-5.85,0-9.08,3.1t-3.23,8.72v8q0,5.76,3.2,8.91t9.11,3.14a14.41,14.41,0,0,0,6.16-1.36,14.69,14.69,0,0,0,5.06-3.85l7.3,6.66a17.4,17.4,0,0,1-4.77,4.15,22.61,22.61,0,0,1-6.38,2.6,30.22,30.22,0,0,1-7.52.89Z" transform="translate(-0.21)" style="fill: #2dcace"/>
  <path d="M1508.84,200.15l-5.07-2.53a17.38,17.38,0,0,1-7.72-7.43,24.55,24.55,0,0,1-2.65-11.84v-5.48a27.35,27.35,0,0,1,2.56-12.33,17.66,17.66,0,0,1,7.42-7.78,24.09,24.09,0,0,1,11.71-2.67,19.35,19.35,0,0,1,11,3,19.06,19.06,0,0,1,7,8.81,35.92,35.92,0,0,1,2.4,13.83V179h-34.74v-7.68h25.11q-.42-6-3.25-9.26a9.38,9.38,0,0,0-7.52-3.31q-5.76,0-8.91,3.57T1503,172.35v6.19q0,6,3.37,9.28t9.58,3.24a16.59,16.59,0,0,0,6.11-1.17,17.65,17.65,0,0,0,5.41-3.29l6.65,6.29a28,28,0,0,1-8.58,5.36,25.62,25.62,0,0,1-9.59,1.9Z" transform="translate(-0.21)" style="fill: #2dcace"/>
  <path d="M494.46,239.64H501l20.24,51.83H513l-15.21-41.81-15.21,41.81h-8.28Zm-10.9,33.51h28.87v7H483.56Z" transform="translate(-0.21)" style="fill: #f2f2f2"/>
  <path d="M525.79,254.47h19.59v6.2H525.79Zm4.16-5q0-4.92,2.39-7.36c1.6-1.62,4.06-2.44,7.38-2.44h5.66v6.92h-5.51a1.93,1.93,0,0,0-1.66.78,3.47,3.47,0,0,0-.56,2v42.1H530Z" transform="translate(-0.21)" style="fill: #f2f2f2"/>
  <path d="M550.27,254.47h19.59v6.2H550.27Zm4.15-5q0-4.92,2.4-7.36c1.6-1.62,4.06-2.44,7.38-2.44h5.66v6.92h-5.49a1.93,1.93,0,0,0-1.66.78,3.45,3.45,0,0,0-.57,2v42.1h-7.7Z" transform="translate(-0.21)" style="fill: #f2f2f2"/>
  <path d="M583,290.15a12.72,12.72,0,0,1-5.53-5.5,18.52,18.52,0,0,1-1.91-8.72v-6a18.23,18.23,0,0,1,1.91-8.61,12.71,12.71,0,0,1,5.53-5.45,21.29,21.29,0,0,1,17.44,0,12.66,12.66,0,0,1,5.53,5.45,18.11,18.11,0,0,1,1.91,8.61v6.13A18.09,18.09,0,0,1,606,284.7a12.7,12.7,0,0,1-5.53,5.47,21.06,21.06,0,0,1-17.44,0Zm15-7.41a9.48,9.48,0,0,0,2.21-6.7v-6.13a9.39,9.39,0,0,0-2.21-6.67,9.49,9.49,0,0,0-12.5,0,9.38,9.38,0,0,0-2.2,6.67V276a9.53,9.53,0,0,0,2.2,6.7A9.36,9.36,0,0,0,598,282.74Z" transform="translate(-0.21)" style="fill: #f2f2f2"/>
  <path d="M618.8,254.47h7.7v37h-7.7Zm19,7a9.76,9.76,0,0,0-3.59-.61,8,8,0,0,0-5.68,1.91,7,7,0,0,0-2,5.29l-.79-7.13a14,14,0,0,1,4.68-5.15,11.59,11.59,0,0,1,6.34-1.83,15.3,15.3,0,0,1,4.85.73,11.1,11.1,0,0,1,3.8,2.15l-5,6.42a6.4,6.4,0,0,0-2.62-1.79Z" transform="translate(-0.21)" style="fill: #f2f2f2"/>
  <path d="M656.11,290.35a11.39,11.39,0,0,1-4.62-5.16,18.87,18.87,0,0,1-1.58-8.12v-8.16a19.74,19.74,0,0,1,1.54-8.17,11.34,11.34,0,0,1,4.51-5.15,13.74,13.74,0,0,1,7.12-1.76,12.24,12.24,0,0,1,6.36,1.71,13,13,0,0,1,4.66,4.81l-.79,7.56a8.19,8.19,0,0,0-.91-4,6,6,0,0,0-2.62-2.55,9.22,9.22,0,0,0-4.17-.87,7.74,7.74,0,0,0-5.91,2.24,9,9,0,0,0-2.09,6.31v8.06a8.61,8.61,0,0,0,2.09,6.22,7.78,7.78,0,0,0,5.91,2.19,8.71,8.71,0,0,0,4.17-.91A6.08,6.08,0,0,0,672.4,282a8.57,8.57,0,0,0,.91-4.1l.53,7.81a10.6,10.6,0,0,1-3.83,4.6,11.2,11.2,0,0,1-6.55,1.85A14.42,14.42,0,0,1,656.11,290.35Zm17.16-50.71H681v51.83h-7.7Z" transform="translate(-0.21)" style="fill: #f2f2f2"/>
  <path d="M694.41,289.15q-3.57-2.82-3.59-8.61,0-5.49,3.29-8.23t9.92-2.75h11.14l.53,5.85H704.07a6.91,6.91,0,0,0-4.51,1.26,4.84,4.84,0,0,0-1.49,3.87,4.7,4.7,0,0,0,2,4.17,10.57,10.57,0,0,0,6,1.36,18,18,0,0,0,6.59-.9,2.93,2.93,0,0,0,2.17-2.78l.79,5.21a8.53,8.53,0,0,1-2.51,2.46,11.13,11.13,0,0,1-3.45,1.44,18.26,18.26,0,0,1-4.42.48Q698,292,694.41,289.15ZM714.83,268a7.54,7.54,0,0,0-2.06-5.65,8,8,0,0,0-5.83-2,15.9,15.9,0,0,0-4.59.68,14.24,14.24,0,0,0-4,1.89l-5.62-3.64a14.76,14.76,0,0,1,5.87-3.94,22.4,22.4,0,0,1,8.1-1.4,19.74,19.74,0,0,1,8.34,1.62,11.75,11.75,0,0,1,5.28,4.7,14.41,14.41,0,0,1,1.81,7.43v23.78h-7.32Z" transform="translate(-0.21)" style="fill: #f2f2f2"/>
  <path d="M733.85,239.64h7.71v51.83h-7.71ZM745,290.35a9.85,9.85,0,0,1-4-4.69l.53-7.74a8.56,8.56,0,0,0,.9,4.07,6.11,6.11,0,0,0,2.62,2.56,8.9,8.9,0,0,0,4.18.89,7.75,7.75,0,0,0,5.9-2.19,8.56,8.56,0,0,0,2.1-6.18v-8a8.92,8.92,0,0,0-2.1-6.31,7.68,7.68,0,0,0-5.9-2.25,9.42,9.42,0,0,0-4.18.86,6,6,0,0,0-2.62,2.51,8.32,8.32,0,0,0-.9,4l-.8-7.13a13.19,13.19,0,0,1,4.64-5,12.05,12.05,0,0,1,6.38-1.76,13.74,13.74,0,0,1,7.12,1.76,11.28,11.28,0,0,1,4.51,5.15,19.38,19.38,0,0,1,1.55,8.16v8.06a18.63,18.63,0,0,1-1.59,8,11.24,11.24,0,0,1-4.64,5.12,14.49,14.49,0,0,1-7.32,1.76,11.94,11.94,0,0,1-6.38-1.68Z" transform="translate(-0.21)" style="fill: #f2f2f2"/>
  <path d="M783.61,281.92a3.09,3.09,0,0,0,.62,2.08,2.16,2.16,0,0,0,1.75.73h3.63v6.92h-4.53a8.81,8.81,0,0,1-6.78-2.57c-1.6-1.7-2.4-4.12-2.4-7.24v-42.2h7.71Z" transform="translate(-0.21)" style="fill: #f2f2f2"/>
  <path d="M808.9,292l-3.85-1.92a13.25,13.25,0,0,1-5.87-5.65,18.6,18.6,0,0,1-2-9v-4.17a20.83,20.83,0,0,1,1.94-9.38,13.47,13.47,0,0,1,5.64-5.91,18.25,18.25,0,0,1,8.91-2,14.87,14.87,0,0,1,8.38,2.31,14.63,14.63,0,0,1,5.31,6.7,27.21,27.21,0,0,1,1.83,10.52v2.42H802.74v-5.87h19.1a12,12,0,0,0-2.47-7,7.11,7.11,0,0,0-5.72-2.52,8.59,8.59,0,0,0-6.77,2.71c-1.6,1.81-2.4,4.36-2.4,7.67v4.7c0,3.07.85,5.42,2.57,7.06s4.14,2.46,7.28,2.46a12.71,12.71,0,0,0,4.64-.89,13.58,13.58,0,0,0,4.12-2.5l5.06,4.78a21.13,21.13,0,0,1-6.53,4.08,19.57,19.57,0,0,1-7.29,1.44Z" transform="translate(-0.21)" style="fill: #f2f2f2"/>
  <path d="M860.49,239.64h7.71v51.83h-7.71Zm11.18,50.71a9.85,9.85,0,0,1-4-4.69l.53-7.74a8.56,8.56,0,0,0,.9,4.07,6.13,6.13,0,0,0,2.63,2.56,8.86,8.86,0,0,0,4.17.89,7.75,7.75,0,0,0,5.9-2.19,8.56,8.56,0,0,0,2.1-6.18v-8a8.92,8.92,0,0,0-2.1-6.31,7.68,7.68,0,0,0-5.9-2.25,9.38,9.38,0,0,0-4.17.86,6.07,6.07,0,0,0-2.63,2.51,8.32,8.32,0,0,0-.9,4l-.8-7.13a13.3,13.3,0,0,1,4.65-5,11.88,11.88,0,0,1,6.38-1.76,13.68,13.68,0,0,1,7.11,1.76,11.23,11.23,0,0,1,4.51,5.15,19.38,19.38,0,0,1,1.55,8.16v8.06a18.57,18.57,0,0,1-1.59,8.05,11.24,11.24,0,0,1-4.64,5.12,14.49,14.49,0,0,1-7.32,1.76A12,12,0,0,1,871.67,290.35Z" transform="translate(-0.21)" style="fill: #f2f2f2"/>
  <path d="M913.15,292l-3.88-1.92a13.3,13.3,0,0,1-5.87-5.65,18.71,18.71,0,0,1-2-9v-4.17a20.82,20.82,0,0,1,2-9.38A13.37,13.37,0,0,1,909,256a18.25,18.25,0,0,1,8.91-2,14.8,14.8,0,0,1,8.32,2.28,14.61,14.61,0,0,1,5.3,6.7,27.21,27.21,0,0,1,1.83,10.52v2.42H907v-5.84h19.1a12,12,0,0,0-2.47-7,7.11,7.11,0,0,0-5.72-2.52,8.62,8.62,0,0,0-6.78,2.71c-1.6,1.81-2.39,4.36-2.39,7.67v4.7c0,3.07.86,5.42,2.56,7.06s4.14,2.46,7.29,2.46a12.71,12.71,0,0,0,4.64-.89,13.58,13.58,0,0,0,4.12-2.5l5,4.78a21.13,21.13,0,0,1-6.53,4.08,19.52,19.52,0,0,1-7.28,1.44Z" transform="translate(-0.21)" style="fill: #f2f2f2"/>
  <path d="M954.37,292l-3-.64a24.86,24.86,0,0,1-5.68-1.92,22.44,22.44,0,0,1-4.87-3.21l4.57-5.31a25.65,25.65,0,0,0,6.3,3.42,18,18,0,0,0,6.19,1.14c3,0,5.33-.44,6.85-1.34a4.33,4.33,0,0,0,2.29-4,3.05,3.05,0,0,0-1.25-2.67,7.31,7.31,0,0,0-3.09-1.19c-1.24-.21-3-.39-5.21-.56h-.64a2.21,2.21,0,0,1-.64-.06h-.61a32,32,0,0,1-6.45-1,8.9,8.9,0,0,1-4.4-2.87,9.19,9.19,0,0,1-1.76-6,11.78,11.78,0,0,1,1.7-6.52,10.24,10.24,0,0,1,5.06-3.9,23.66,23.66,0,0,1,8.42-1.3,30.77,30.77,0,0,1,5.83.53,27.89,27.89,0,0,1,5.3,1.59,26.38,26.38,0,0,1,4.87,2.65l-4.64,5.31a26.21,26.21,0,0,0-5.79-2.67,19.13,19.13,0,0,0-5.57-.89,11.06,11.06,0,0,0-5.89,1.26,4.24,4.24,0,0,0-2,3.8,2.54,2.54,0,0,0,1.11,2.25,6.73,6.73,0,0,0,2.81,1c1.13.17,2.75.31,4.83.43h1.49a35.16,35.16,0,0,1,7,1,9.48,9.48,0,0,1,4.85,3.1c1.34,1.56,2,3.79,2,6.7a11.31,11.31,0,0,1-1.81,6.62,10.78,10.78,0,0,1-5.45,3.93,27.08,27.08,0,0,1-9.16,1.32Z" transform="translate(-0.21)" style="fill: #f2f2f2"/>
  <path d="M984.08,254.47h7.7v52h-7.7Zm11.19,35.88a9.85,9.85,0,0,1-4-4.69l.53-7.74a8.46,8.46,0,0,0,.91,4.07,6,6,0,0,0,2.56,2.56,8.86,8.86,0,0,0,4.17.89,7.77,7.77,0,0,0,5.91-2.19,8.6,8.6,0,0,0,2.09-6.18v-8a9,9,0,0,0-2.09-6.31,7.7,7.7,0,0,0-5.91-2.25,9.38,9.38,0,0,0-4.17.86,5.94,5.94,0,0,0-2.62,2.51,8.19,8.19,0,0,0-.91,4l-.79-7.13a13.19,13.19,0,0,1,4.64-5A11.88,11.88,0,0,1,1002,254a13.68,13.68,0,0,1,7.11,1.76,11.25,11.25,0,0,1,4.52,5.15,19.53,19.53,0,0,1,1.54,8.16v8.06a18.71,18.71,0,0,1-1.58,8.05,11.31,11.31,0,0,1-4.65,5.12,14.39,14.39,0,0,1-7.32,1.76A12,12,0,0,1,995.27,290.35Z" transform="translate(-0.21)" style="fill: #f2f2f2"/>
  <path d="M1032.43,290.15a12.77,12.77,0,0,1-5.53-5.5,18.66,18.66,0,0,1-1.9-8.72v-6a18.22,18.22,0,0,1,1.9-8.61,12.77,12.77,0,0,1,5.53-5.45,21.29,21.29,0,0,1,17.44,0,12.66,12.66,0,0,1,5.53,5.45,18.11,18.11,0,0,1,1.91,8.61v6.13a18.09,18.09,0,0,1-1.91,8.64,12.7,12.7,0,0,1-5.53,5.47,21.06,21.06,0,0,1-17.44,0Zm15-7.41a9.48,9.48,0,0,0,2.21-6.7v-6.13a9.39,9.39,0,0,0-2.21-6.67,9.49,9.49,0,0,0-12.5,0,9.38,9.38,0,0,0-2.2,6.67V276a9.53,9.53,0,0,0,2.2,6.7A9.36,9.36,0,0,0,1047.43,282.74Z" transform="translate(-0.21)" style="fill: #f2f2f2"/>
  <path d="M1068.27,239.64h7.7v51.83h-7.7Zm3.33,37.78,20.15-23h9.06l-29.71,31.58Zm9.09-7.3,5-4.85,17.1,26.2h-8.38Z" transform="translate(-0.21)" style="fill: #f2f2f2"/>
  <path d="M1119.74,292l-3.85-1.92a13.3,13.3,0,0,1-5.87-5.65,18.6,18.6,0,0,1-2-9v-4.17a21,21,0,0,1,1.94-9.38,13.44,13.44,0,0,1,5.65-5.91,18.25,18.25,0,0,1,8.91-2,14.87,14.87,0,0,1,8.38,2.31,14.61,14.61,0,0,1,5.3,6.7A27.21,27.21,0,0,1,1140,273.5v2.42h-26.42v-5.87h19.1a12,12,0,0,0-2.47-7,7.14,7.14,0,0,0-5.72-2.52,8.62,8.62,0,0,0-6.78,2.71c-1.6,1.81-2.4,4.36-2.4,7.67v4.7q0,4.61,2.57,7.06t7.29,2.46a12.71,12.71,0,0,0,4.64-.89,13.53,13.53,0,0,0,4.11-2.5l5.06,4.78a21.13,21.13,0,0,1-6.53,4.08,19.52,19.52,0,0,1-7.28,1.44Z" transform="translate(-0.21)" style="fill: #f2f2f2"/>
  <path d="M1167.94,254.47h8l7,26.41,9.78-26.41h5.36l9.77,26.41,7-26.41h8l-12.08,37H1205l-9.55-25.56-9.55,25.56H1180Z" transform="translate(-0.21)" style="fill: #f2f2f2"/>
  <path d="M1241,292l-3.85-1.92a13.3,13.3,0,0,1-5.87-5.65,18.71,18.71,0,0,1-2-9v-4.17a20.82,20.82,0,0,1,2-9.38,13.37,13.37,0,0,1,5.64-5.91,18.25,18.25,0,0,1,8.91-2,14.87,14.87,0,0,1,8.38,2.31,14.49,14.49,0,0,1,5.3,6.7,27.21,27.21,0,0,1,1.83,10.52v2.42H1234.9v-5.87H1254a12,12,0,0,0-2.47-7,7.11,7.11,0,0,0-5.72-2.52,8.62,8.62,0,0,0-6.78,2.71c-1.59,1.81-2.39,4.36-2.39,7.67v4.7c0,3.07.86,5.42,2.56,7.06s4.14,2.46,7.29,2.46a12.71,12.71,0,0,0,4.64-.89,13.58,13.58,0,0,0,4.12-2.5l5,4.78a21.13,21.13,0,0,1-6.53,4.08,19.52,19.52,0,0,1-7.28,1.44Z" transform="translate(-0.21)" style="fill: #f2f2f2"/>
  <path d="M1271.82,239.64h7.7v51.83h-7.7ZM1283,290.35a9.85,9.85,0,0,1-4-4.69l.53-7.74a8.57,8.57,0,0,0,.91,4.07,6.11,6.11,0,0,0,2.62,2.56,8.86,8.86,0,0,0,4.17.89,7.77,7.77,0,0,0,5.91-2.19,8.56,8.56,0,0,0,2.1-6.18v-8a8.88,8.88,0,0,0-2.1-6.31,7.7,7.7,0,0,0-5.91-2.25,9.38,9.38,0,0,0-4.17.86,6,6,0,0,0-2.62,2.51,8.3,8.3,0,0,0-.91,4l-.79-7.13a13.19,13.19,0,0,1,4.64-5,12.05,12.05,0,0,1,6.38-1.76,13.74,13.74,0,0,1,7.12,1.76,11.28,11.28,0,0,1,4.51,5.15,19.38,19.38,0,0,1,1.55,8.16v8.06a18.57,18.57,0,0,1-1.59,8.05,11.29,11.29,0,0,1-4.64,5.12,14.49,14.49,0,0,1-7.32,1.76,11.9,11.9,0,0,1-6.39-1.7Z" transform="translate(-0.21)" style="fill: #f2f2f2"/>
  <path d="M1324.27,292l-3-.64a24.86,24.86,0,0,1-5.68-1.92,22.44,22.44,0,0,1-4.87-3.21l4.57-5.31a25.89,25.89,0,0,0,6.31,3.42,18,18,0,0,0,6.19,1.14c3,0,5.33-.44,6.85-1.34a4.34,4.34,0,0,0,2.28-4,3.05,3.05,0,0,0-1.25-2.67,7.31,7.31,0,0,0-3.09-1.19c-1.23-.21-3-.39-5.21-.56h-.64a2.21,2.21,0,0,1-.64-.06h-.61a32,32,0,0,1-6.45-1,8.9,8.9,0,0,1-4.4-2.87,9.18,9.18,0,0,1-1.75-6,11.62,11.62,0,0,1,1.7-6.52,10.15,10.15,0,0,1,5-3.9,23.66,23.66,0,0,1,8.42-1.3,30.77,30.77,0,0,1,5.83.53,28,28,0,0,1,5.31,1.59,26.9,26.9,0,0,1,4.86,2.65l-4.64,5.31a26.21,26.21,0,0,0-5.79-2.67,19.13,19.13,0,0,0-5.57-.89,11.06,11.06,0,0,0-5.89,1.26,4.24,4.24,0,0,0-2,3.8,2.54,2.54,0,0,0,1.11,2.25,6.73,6.73,0,0,0,2.81,1c1.14.17,2.75.31,4.84.43h1.43a35.16,35.16,0,0,1,7,1,9.48,9.48,0,0,1,4.85,3.1c1.34,1.56,2,3.79,2,6.7a11.32,11.32,0,0,1-1.82,6.62,10.72,10.72,0,0,1-5.45,3.93,27,27,0,0,1-9.15,1.32Z" transform="translate(-0.21)" style="fill: #f2f2f2"/>
  <path d="M1354,239.64h7.7v7.27H1354Zm0,14.83h7.7v37H1354Z" transform="translate(-0.21)" style="fill: #f2f2f2"/>
  <path d="M1370.34,254.47H1388V261h-17.67Zm6.25,34.7c-1.47-1.64-2.21-4.09-2.21-7.33V243.7h7.7v38.22a3.4,3.4,0,0,0,.57,2.08,2,2,0,0,0,1.66.73h3.7v6.92h-4.46q-4.74,0-7-2.5Z" transform="translate(-0.21)" style="fill: #f2f2f2"/>
  <path d="M1409.18,292l-3.85-1.92a13.35,13.35,0,0,1-5.87-5.65,18.71,18.71,0,0,1-2-9v-4.17a20.81,20.81,0,0,1,2-9.38,13.37,13.37,0,0,1,5.64-5.91,18.25,18.25,0,0,1,8.91-2,14.87,14.87,0,0,1,8.38,2.31,14.49,14.49,0,0,1,5.3,6.7,27.21,27.21,0,0,1,1.83,10.52v2.42h-26.42v-5.87h19.1a12,12,0,0,0-2.47-7,7.11,7.11,0,0,0-5.72-2.52,8.62,8.62,0,0,0-6.78,2.71c-1.59,1.81-2.39,4.36-2.39,7.67v4.7c0,3.07.86,5.42,2.56,7.06s4.14,2.46,7.29,2.46a12.71,12.71,0,0,0,4.64-.89,13.58,13.58,0,0,0,4.12-2.5l5.06,4.78a21.17,21.17,0,0,1-6.54,4.08,19.52,19.52,0,0,1-7.28,1.44Z" transform="translate(-0.21)" style="fill: #f2f2f2"/>
  <path d="M1450.4,292l-3-.64a24.86,24.86,0,0,1-5.68-1.92,22.44,22.44,0,0,1-4.87-3.21l4.57-5.31a25.89,25.89,0,0,0,6.31,3.42,18,18,0,0,0,6.19,1.14c3,0,5.33-.44,6.85-1.34a4.34,4.34,0,0,0,2.28-4,3.05,3.05,0,0,0-1.25-2.67,7.31,7.31,0,0,0-3.09-1.19c-1.23-.21-3-.39-5.21-.56h-.64a2.21,2.21,0,0,1-.64-.06h-.61a32,32,0,0,1-6.45-1,8.9,8.9,0,0,1-4.4-2.87,9.18,9.18,0,0,1-1.75-6,11.69,11.69,0,0,1,1.69-6.52,10.24,10.24,0,0,1,5.06-3.9,23.66,23.66,0,0,1,8.42-1.3,30.77,30.77,0,0,1,5.83.53,27.89,27.89,0,0,1,5.3,1.59,26.38,26.38,0,0,1,4.87,2.65l-4.64,5.31a26.21,26.21,0,0,0-5.79-2.67,19.13,19.13,0,0,0-5.57-.89,11.06,11.06,0,0,0-5.89,1.26,4.24,4.24,0,0,0-2,3.8,2.54,2.54,0,0,0,1.11,2.25,6.73,6.73,0,0,0,2.81,1c1.14.17,2.75.31,4.84.43h1.43a35.16,35.16,0,0,1,7,1,9.48,9.48,0,0,1,4.85,3.1c1.34,1.56,2,3.79,2,6.7a11.32,11.32,0,0,1-1.82,6.62,10.72,10.72,0,0,1-5.45,3.93,27,27,0,0,1-9.15,1.32Z" transform="translate(-0.21)" style="fill: #f2f2f2"/>
</svg>
