<svg id="Layer_1" data-name="Layer 1" xmlns="http://www.w3.org/2000/svg" viewBox="0 0 1920 583.96"><title>landingbanner</title><rect width="1920" height="583.96"/><path d="M465.73,250.62v11.9a27.69,27.69,0,0,1-3.13,13.38,22,22,0,0,1-8.86,9,27,27,0,0,1-13.28,3.1A28.94,28.94,0,0,1,427,285a21.42,21.42,0,0,1-9-8.41A24.5,24.5,0,0,1,414.9,264V243.91a27.58,27.58,0,0,1,3.1-13.36,22,22,0,0,1,8.86-8.93,27,27,0,0,1,13.27-3.16A26,26,0,0,1,451.61,221a23.89,23.89,0,0,1,8.76,7.1,25.64,25.64,0,0,1,4.76,10.64h-11a14.37,14.37,0,0,0-14-10.92,15.05,15.05,0,0,0-7.84,2,13.53,13.53,0,0,0-5.21,5.65,18.33,18.33,0,0,0-1.84,8.46V264a15.27,15.27,0,0,0,1.89,7.71,13,13,0,0,0,5.34,5.14,16.83,16.83,0,0,0,8,1.82,15.69,15.69,0,0,0,7.85-1.9,12.81,12.81,0,0,0,5.21-5.5,18.74,18.74,0,0,0,1.83-8.58v-3H440.71v-9.14Z" transform="translate(4)" style="fill:#f2f2f2"/><path d="M481.12,238.66h10.12v48.66H481.12Zm25,9.19a12.88,12.88,0,0,0-4.72-.8q-4.81,0-7.47,2.51a9.09,9.09,0,0,0-2.66,7l-1-9.37a18.17,18.17,0,0,1,6.16-6.78A15.06,15.06,0,0,1,504.7,238a19.69,19.69,0,0,1,6.37,1,14.45,14.45,0,0,1,5,2.84l-6.6,8.43a8.4,8.4,0,0,0-3.38-2.42Z" transform="translate(4)" style="fill:#f2f2f2"/><path d="M531.8,285.54a16.8,16.8,0,0,1-7.27-7.25A24.22,24.22,0,0,1,522,266.83v-7.92a23.77,23.77,0,0,1,2.51-11.32,16.73,16.73,0,0,1,7.27-7.17,28,28,0,0,1,22.93,0,16.73,16.73,0,0,1,7.27,7.17,23.77,23.77,0,0,1,2.51,11.32V267A23.83,23.83,0,0,1,562,278.34a16.9,16.9,0,0,1-7.27,7.2A27.72,27.72,0,0,1,531.8,285.54Zm19.68-9.75c1.94-2.1,2.9-5,2.9-8.82v-8.06c0-3.78-1-6.7-2.9-8.76s-4.67-3.1-8.21-3.1-6.28,1-8.22,3.1-2.9,5-2.9,8.76V267c0,3.79,1,6.72,2.9,8.82s4.67,3.14,8.22,3.14S549.54,277.88,551.48,275.79Z" transform="translate(4)" style="fill:#f2f2f2"/><path d="M572.45,238.66H583l9.13,34.74L605,238.66h7L624.9,273.4,634,238.66h10.57l-15.89,48.66H621.1l-12.56-33.61L596,287.32h-7.64Z" transform="translate(4)" style="fill:#f2f2f2"/><path d="M685.08,284.29q-4.71-3.72-4.71-11.32,0-7.22,4.32-10.82t13-3.61h14.65l.69,7.68H697.79c-2.65,0-4.62.56-5.93,1.67a6.28,6.28,0,0,0-2,5.08,6.2,6.2,0,0,0,2.61,5.49q2.6,1.79,7.91,1.78c3.88,0,6.76-.39,8.67-1.17s2.85-2,2.85-3.66l1,6.85a11.41,11.41,0,0,1-3.3,3.23,15,15,0,0,1-4.54,1.9,24.69,24.69,0,0,1-5.81.63Q689.82,288,685.08,284.29Zm26.86-27.82a10,10,0,0,0-2.7-7.43q-2.72-2.64-7.67-2.64a20.71,20.71,0,0,0-6,.89,18.2,18.2,0,0,0-5.23,2.48L682.9,245a19.24,19.24,0,0,1,7.72-5.18A29.33,29.33,0,0,1,701.27,238a25.83,25.83,0,0,1,11,2.13,15.41,15.41,0,0,1,7,6.19,18.94,18.94,0,0,1,2.38,9.77v31.27H712Z" transform="translate(4)" style="fill:#f2f2f2"/><path d="M737,238.66h10.12v48.66H737Zm31.27,19.17c0-3.43-.94-6.09-2.83-8S760.91,247,757.5,247s-5.87.83-7.67,2.49a9,9,0,0,0-2.71,7l-1-9.37a17.72,17.72,0,0,1,6.23-6.8,15.84,15.84,0,0,1,8.52-2.39q8.39,0,13,5.18t4.59,14.65V287.3H768.23Z" transform="translate(4)" style="fill:#f2f2f2"/><path d="M829.34,285.54a16.8,16.8,0,0,1-7.27-7.25,24.2,24.2,0,0,1-2.51-11.46v-7.92a23.77,23.77,0,0,1,2.51-11.32,16.73,16.73,0,0,1,7.27-7.17,28,28,0,0,1,22.93,0,16.73,16.73,0,0,1,7.27,7.17,23.77,23.77,0,0,1,2.51,11.32V267a24,24,0,0,1-2.51,11.37,16.9,16.9,0,0,1-7.27,7.2,27.72,27.72,0,0,1-22.93,0ZM849,275.79c1.94-2.1,2.9-5,2.9-8.82v-8.06c0-3.78-1-6.7-2.9-8.76s-4.68-3.1-8.22-3.1-6.28,1-8.21,3.1-2.91,5-2.91,8.76V267c0,3.79,1,6.72,2.91,8.82s4.67,3.14,8.21,3.14S847.08,277.88,849,275.79Z" transform="translate(4)" style="fill:#f2f2f2"/><path d="M876.45,238.66h10.12v48.66H876.45Zm31.27,19.17c0-3.43-.94-6.09-2.83-8S900.36,247,897,247s-5.87.83-7.67,2.49a9,9,0,0,0-2.71,7l-1-9.37a17.72,17.72,0,0,1,6.23-6.8,15.78,15.78,0,0,1,8.51-2.39q8.4,0,13,5.18t4.6,14.65V287.3H907.72Z" transform="translate(4)" style="fill:#f2f2f2"/><path d="M943.36,274.76a4.08,4.08,0,0,0,.82,2.74,2.87,2.87,0,0,0,2.31,1h4.76v9.09h-6q-5.76,0-8.91-3.37t-3.16-9.52V219.2h10.13Z" transform="translate(4)" style="fill:#f2f2f2"/><path d="M962.67,219.16H972.8v9.56H962.67Zm0,19.5H972.8v48.66H962.67Z" transform="translate(4)" style="fill:#f2f2f2"/><path d="M988.18,238.66h10.13v48.66H988.18Zm31.28,19.17a11.12,11.12,0,0,0-2.83-8c-1.83-1.91-4.54-2.82-7.94-2.82s-5.87.83-7.67,2.49a9,9,0,0,0-2.71,7l-1-9.37a17.65,17.65,0,0,1,6.23-6.8A15.78,15.78,0,0,1,1012,238q8.38,0,13,5.18t4.59,14.65v29.53h-10.12Z" transform="translate(4)" style="fill:#f2f2f2"/><path d="M1058.92,288l-5.06-2.53a17.38,17.38,0,0,1-7.72-7.43,24.56,24.56,0,0,1-2.66-11.84v-5.48a27.32,27.32,0,0,1,2.56-12.33,17.71,17.71,0,0,1,7.42-7.78,23.93,23.93,0,0,1,11.71-2.67,19.35,19.35,0,0,1,11,3,19.13,19.13,0,0,1,7,8.81,35.74,35.74,0,0,1,2.41,13.83v3.18h-34.75v-7.68H1076q-.45-6-3.25-9.26a9.4,9.4,0,0,0-7.53-3.31q-5.74,0-8.91,3.57t-3.15,10.07v6.19q0,6,3.38,9.28t9.58,3.24a16.75,16.75,0,0,0,6.1-1.17,17.65,17.65,0,0,0,5.41-3.29l6.66,6.29a28.21,28.21,0,0,1-8.59,5.36,25.57,25.57,0,0,1-9.58,1.9Z" transform="translate(4)" style="fill:#f2f2f2"/><path d="M1126.78,238.66h10.12V307.1h-10.12Zm14.69,47.18a13,13,0,0,1-5.26-6.16l.69-10.17a11.23,11.23,0,0,0,1.19,5.34,8.07,8.07,0,0,0,3.45,3.37,11.72,11.72,0,0,0,5.49,1.18q5,0,7.77-2.89c1.84-1.92,2.75-4.63,2.75-8.13V257.83c0-3.56-.91-6.32-2.75-8.29a10.14,10.14,0,0,0-7.77-3,12.24,12.24,0,0,0-5.49,1.13,7.91,7.91,0,0,0-3.45,3.3,10.8,10.8,0,0,0-1.19,5.23l-1-9.37a17.28,17.28,0,0,1,6.11-6.59,15.62,15.62,0,0,1,8.39-2.32,18,18,0,0,1,9.35,2.32,14.73,14.73,0,0,1,5.93,6.77,25.68,25.68,0,0,1,2,10.74v10.59A24.58,24.58,0,0,1,1165.6,279a14.93,14.93,0,0,1-6.11,6.73,18.93,18.93,0,0,1-9.63,2.32A15.86,15.86,0,0,1,1141.47,285.84Z" transform="translate(4)" style="fill:#f2f2f2"/><path d="M1182.08,238.66h10.12v48.66h-10.12Zm25,9.19a12.83,12.83,0,0,0-4.71-.8q-4.81,0-7.47,2.51a9.09,9.09,0,0,0-2.66,7l-1-9.37a18.17,18.17,0,0,1,6.16-6.78,15.1,15.1,0,0,1,8.34-2.41,20,20,0,0,1,6.37,1,14.45,14.45,0,0,1,5,2.84l-6.6,8.43a8.41,8.41,0,0,0-3.51-2.42Z" transform="translate(4)" style="fill:#f2f2f2"/><path d="M1238.42,288l-5.07-2.53a17.44,17.44,0,0,1-7.72-7.43A24.55,24.55,0,0,1,1223,266.2v-5.48a27.32,27.32,0,0,1,2.56-12.33,17.66,17.66,0,0,1,7.42-7.78,23.93,23.93,0,0,1,11.71-2.67,19.33,19.33,0,0,1,11,3,19,19,0,0,1,7,8.81,35.92,35.92,0,0,1,2.4,13.83v3.18h-34.74v-7.68h25.11q-.45-6-3.25-9.26a9.38,9.38,0,0,0-7.52-3.31q-5.76,0-8.91,3.57t-3.15,10.07v6.19q0,6,3.37,9.28t9.58,3.24a16.84,16.84,0,0,0,6.11-1.17,18,18,0,0,0,5.41-3.29l6.65,6.29a28.21,28.21,0,0,1-8.59,5.36,25.57,25.57,0,0,1-9.58,1.9Z" transform="translate(4)" style="fill:#f2f2f2"/><path d="M1292.62,288l-4-.84a32,32,0,0,1-7.47-2.53,29.38,29.38,0,0,1-6.41-4.22l6-7a34.32,34.32,0,0,0,8.29,4.5,23.8,23.8,0,0,0,8.14,1.5q6,0,9-1.75a5.72,5.72,0,0,0,3-5.28,4,4,0,0,0-1.64-3.51,9.54,9.54,0,0,0-4.07-1.57c-1.62-.27-3.9-.52-6.85-.73h-.84l-.84-.07h-.8a42.13,42.13,0,0,1-8.49-1.38,11.55,11.55,0,0,1-5.78-3.78q-2.31-2.76-2.31-7.92a15.42,15.42,0,0,1,2.24-8.58,13.37,13.37,0,0,1,6.65-5.13,30.87,30.87,0,0,1,11.07-1.71,40.31,40.31,0,0,1,7.67.7,36.37,36.37,0,0,1,7,2.09,35.1,35.1,0,0,1,6.4,3.49l-6.1,7a35.08,35.08,0,0,0-7.62-3.51,24.57,24.57,0,0,0-7.32-1.17c-3.45,0-6,.55-7.75,1.66a5.54,5.54,0,0,0-2.58,5,3.32,3.32,0,0,0,1.47,3,8.89,8.89,0,0,0,3.69,1.31q2.24.33,6.36.56a3.21,3.21,0,0,0,.62,0,3.78,3.78,0,0,1,.67.05h.3a.71.71,0,0,1,.29,0,46.23,46.23,0,0,1,9.21,1.36,12.47,12.47,0,0,1,6.38,4.08q2.58,3,2.58,8.81a15,15,0,0,1-2.38,8.7,14.4,14.4,0,0,1-7.17,5.18,35.9,35.9,0,0,1-12,1.73Z" transform="translate(4)" style="fill:#f2f2f2"/><path d="M1345.64,288l-5.06-2.53a17.38,17.38,0,0,1-7.72-7.43,24.44,24.44,0,0,1-2.66-11.84v-5.48a27.32,27.32,0,0,1,2.56-12.33,17.66,17.66,0,0,1,7.42-7.78,23.93,23.93,0,0,1,11.71-2.67,19.35,19.35,0,0,1,11,3,19,19,0,0,1,7,8.81,35.92,35.92,0,0,1,2.4,13.83v3.18h-34.74v-7.68h25.11q-.44-6-3.25-9.26a9.38,9.38,0,0,0-7.52-3.31q-5.76,0-8.91,3.57t-3.15,10.07v6.19q0,6,3.38,9.28t9.58,3.24a16.75,16.75,0,0,0,6.1-1.17,18,18,0,0,0,5.41-3.29l6.65,6.29a28,28,0,0,1-8.58,5.36,25.57,25.57,0,0,1-9.58,1.9Z" transform="translate(4)" style="fill:#f2f2f2"/><path d="M1386.19,238.66h10.13v48.66h-10.13Zm31.28,19.17a11.12,11.12,0,0,0-2.83-8c-1.83-1.91-4.54-2.82-8-2.82s-5.86.83-7.66,2.49a9,9,0,0,0-2.71,7l-1-9.37a17.65,17.65,0,0,1,6.23-6.8A15.83,15.83,0,0,1,1410,238q8.38,0,13,5.18t4.59,14.65v29.53h-10.12Z" transform="translate(4)" style="fill:#f2f2f2"/><path d="M1456.73,288l-5-2.48a17.48,17.48,0,0,1-7.62-7.22,23.33,23.33,0,0,1-2.63-11.44v-8a22.8,22.8,0,0,1,2.63-11.3,17.27,17.27,0,0,1,7.62-7.15,27,27,0,0,1,12-2.46,30.17,30.17,0,0,1,7.57.91,23.34,23.34,0,0,1,6.38,2.65,17,17,0,0,1,4.71,4.22l-7.29,6.19a15.41,15.41,0,0,0-11.22-4.88c-3.91,0-6.93,1-9.09,3.1s-3.22,5-3.22,8.72v8q0,5.76,3.2,8.91t9.11,3.14a14.55,14.55,0,0,0,6.15-1.36,14.86,14.86,0,0,0,5.07-3.85l7.29,6.66a17.83,17.83,0,0,1-4.76,4.15,23,23,0,0,1-6.38,2.6,31.25,31.25,0,0,1-7.52.89Z" transform="translate(4)" style="fill:#f2f2f2"/><path d="M1507.56,288l-5.06-2.53a17.38,17.38,0,0,1-7.72-7.43,24.56,24.56,0,0,1-2.66-11.84v-5.48a27.35,27.35,0,0,1,2.56-12.33,17.71,17.71,0,0,1,7.42-7.78,24,24,0,0,1,11.72-2.67,19.35,19.35,0,0,1,11,3,19,19,0,0,1,7,8.81,35.71,35.71,0,0,1,2.41,13.83v3.18h-34.75v-7.68h25.12q-.45-6-3.25-9.26a9.38,9.38,0,0,0-7.52-3.31q-5.76,0-8.91,3.57t-3.16,10.07v6.19q0,6,3.38,9.28t9.58,3.24a16.84,16.84,0,0,0,6.11-1.17,18,18,0,0,0,5.41-3.29l6.65,6.29a28.21,28.21,0,0,1-8.59,5.36,25.57,25.57,0,0,1-9.58,1.9Z" transform="translate(4)" style="fill:#f2f2f2"/><path d="M493.19,327.49h6.57L520,379.32h-8.3l-15.21-41.81-15.21,41.81H473ZM482.29,361h28.87v7H482.29Z" transform="translate(4)" style="fill:#f2f2f2"/><path d="M524.52,342.32h19.59v6.2H524.52Zm4.16-5c0-3.28.79-5.73,2.39-7.36s4.06-2.44,7.38-2.44h5.66v6.92H538.6a1.93,1.93,0,0,0-1.66.78,3.45,3.45,0,0,0-.56,2v42.1h-7.7Z" transform="translate(4)" style="fill:#f2f2f2"/><path d="M549,342.32h19.59v6.2H549Zm4.15-5q0-4.92,2.4-7.36c1.6-1.62,4.06-2.44,7.38-2.44h5.66v6.92H563.1a1.93,1.93,0,0,0-1.66.78,3.31,3.31,0,0,0-.57,2v42.1h-7.7Z" transform="translate(4)" style="fill:#f2f2f2"/><path d="M581.71,378a12.72,12.72,0,0,1-5.53-5.5,18.55,18.55,0,0,1-1.91-8.72v-6a18.11,18.11,0,0,1,1.91-8.61,12.66,12.66,0,0,1,5.53-5.45,21.29,21.29,0,0,1,17.44,0,12.71,12.71,0,0,1,5.53,5.45,18.11,18.11,0,0,1,1.91,8.61v6.13a18.23,18.23,0,0,1-1.91,8.64,12.81,12.81,0,0,1-5.53,5.47,21.06,21.06,0,0,1-17.44,0Zm15-7.41a9.51,9.51,0,0,0,2.21-6.7v-6.13a8.51,8.51,0,1,0-16.92,0v6.13a9.51,9.51,0,0,0,2.21,6.7A9.36,9.36,0,0,0,596.71,370.59Z" transform="translate(4)" style="fill:#f2f2f2"/><path d="M617.53,342.32h7.7v37h-7.7Zm19,7a9.59,9.59,0,0,0-3.59-.61,8,8,0,0,0-5.68,1.91,6.91,6.91,0,0,0-2,5.29l-.79-7.13a13.88,13.88,0,0,1,4.68-5.15,11.57,11.57,0,0,1,6.34-1.83,15.06,15.06,0,0,1,4.85.73,10.94,10.94,0,0,1,3.8,2.15l-5,6.42a6.31,6.31,0,0,0-2.62-1.79Z" transform="translate(4)" style="fill:#f2f2f2"/><path d="M654.84,378.2a11.39,11.39,0,0,1-4.62-5.16,18.9,18.9,0,0,1-1.58-8.12v-8.16a19.58,19.58,0,0,1,1.54-8.17,11.34,11.34,0,0,1,4.51-5.15,13.74,13.74,0,0,1,7.12-1.76,12.24,12.24,0,0,1,6.36,1.71,12.88,12.88,0,0,1,4.66,4.81l-.79,7.56a8.3,8.3,0,0,0-.91-4,6,6,0,0,0-2.62-2.55,9.22,9.22,0,0,0-4.17-.87,7.71,7.71,0,0,0-5.91,2.24,8.85,8.85,0,0,0-2.09,6.31V365a8.62,8.62,0,0,0,2.09,6.22,7.8,7.8,0,0,0,5.91,2.19,8.85,8.85,0,0,0,4.17-.91,6.14,6.14,0,0,0,2.62-2.62,8.57,8.57,0,0,0,.91-4.1l.53,7.81a10.66,10.66,0,0,1-3.83,4.6,11.2,11.2,0,0,1-6.55,1.85A14.5,14.5,0,0,1,654.84,378.2ZM672,327.49h7.7v51.83H672Z" transform="translate(4)" style="fill:#f2f2f2"/><path d="M693.14,377q-3.58-2.83-3.59-8.61,0-5.49,3.29-8.23t9.92-2.75H713.9l.53,5.85H702.8a6.86,6.86,0,0,0-4.51,1.26,4.84,4.84,0,0,0-1.49,3.87,4.71,4.71,0,0,0,2,4.17,10.61,10.61,0,0,0,6,1.36,18.19,18.19,0,0,0,6.59-.9,2.94,2.94,0,0,0,2.17-2.78l.79,5.21a8.65,8.65,0,0,1-2.51,2.46,11.13,11.13,0,0,1-3.45,1.44,18.26,18.26,0,0,1-4.42.48Q696.72,379.85,693.14,377Zm20.42-21.16a7.57,7.57,0,0,0-2.06-5.65,8,8,0,0,0-5.83-2,15.84,15.84,0,0,0-4.59.68,13.72,13.72,0,0,0-4,1.89l-5.62-3.64a14.66,14.66,0,0,1,5.87-3.94,22.34,22.34,0,0,1,8.09-1.4,19.63,19.63,0,0,1,8.35,1.62,11.75,11.75,0,0,1,5.28,4.7,14.41,14.41,0,0,1,1.81,7.43v23.78h-7.32Z" transform="translate(4)" style="fill:#f2f2f2"/><path d="M732.58,327.49h7.7v51.83h-7.7Zm11.18,50.71a9.9,9.9,0,0,1-4-4.69l.53-7.74a8.46,8.46,0,0,0,.91,4.07,6.16,6.16,0,0,0,2.62,2.56,9,9,0,0,0,4.17.89,7.77,7.77,0,0,0,5.91-2.19,8.56,8.56,0,0,0,2.1-6.18v-8a8.89,8.89,0,0,0-2.1-6.31,7.63,7.63,0,0,0-5.91-2.25,9.35,9.35,0,0,0-4.17.86,5.94,5.94,0,0,0-2.62,2.51,8.19,8.19,0,0,0-.91,4l-.79-7.13a13.12,13.12,0,0,1,4.64-5,11.88,11.88,0,0,1,6.38-1.76,13.64,13.64,0,0,1,7.12,1.76,11.28,11.28,0,0,1,4.51,5.15,19.7,19.7,0,0,1,1.55,8.16V365a18.64,18.64,0,0,1-1.6,8,11.35,11.35,0,0,1-4.64,5.12,14.49,14.49,0,0,1-7.32,1.76A11.94,11.94,0,0,1,743.76,378.2Z" transform="translate(4)" style="fill:#f2f2f2"/><path d="M782.33,369.77a3.1,3.1,0,0,0,.63,2.08,2.16,2.16,0,0,0,1.75.73h3.62v6.92h-4.52a8.84,8.84,0,0,1-6.78-2.57q-2.4-2.56-2.4-7.24v-42.2h7.7Z" transform="translate(4)" style="fill:#f2f2f2"/><path d="M807.62,379.85l-3.85-1.92a13.35,13.35,0,0,1-5.87-5.65,18.74,18.74,0,0,1-2-9v-4.17a20.69,20.69,0,0,1,2-9.38,13.37,13.37,0,0,1,5.64-5.91,18.25,18.25,0,0,1,8.91-2,14.79,14.79,0,0,1,8.38,2.31,14.56,14.56,0,0,1,5.3,6.7A27.21,27.21,0,0,1,828,361.35v2.42H801.47V357.9h19.1a12,12,0,0,0-2.47-7,7.11,7.11,0,0,0-5.72-2.52,8.59,8.59,0,0,0-6.78,2.71c-1.59,1.81-2.39,4.36-2.39,7.67v4.7q0,4.6,2.56,7.06c1.72,1.64,4.14,2.46,7.29,2.46a12.93,12.93,0,0,0,4.64-.89,13.58,13.58,0,0,0,4.12-2.5l5.06,4.78a21.48,21.48,0,0,1-6.54,4.08,19.52,19.52,0,0,1-7.28,1.44Z" transform="translate(4)" style="fill:#f2f2f2"/><path d="M859.22,327.49h7.7v51.83h-7.7ZM870.4,378.2a9.8,9.8,0,0,1-4-4.69l.52-7.74a8.46,8.46,0,0,0,.91,4.07,6.16,6.16,0,0,0,2.62,2.56,8.9,8.9,0,0,0,4.18.89,7.75,7.75,0,0,0,5.9-2.19,8.56,8.56,0,0,0,2.1-6.18v-8a8.89,8.89,0,0,0-2.1-6.31,7.68,7.68,0,0,0-5.9-2.25,9.28,9.28,0,0,0-4.18.86,5.94,5.94,0,0,0-2.62,2.51,8.19,8.19,0,0,0-.91,4l-.79-7.13a13.12,13.12,0,0,1,4.64-5,11.88,11.88,0,0,1,6.38-1.76,13.64,13.64,0,0,1,7.12,1.76,11.28,11.28,0,0,1,4.51,5.15,19.7,19.7,0,0,1,1.55,8.16V365a18.72,18.72,0,0,1-1.59,8,11.35,11.35,0,0,1-4.64,5.12,14.49,14.49,0,0,1-7.32,1.76A12,12,0,0,1,870.4,378.2Z" transform="translate(4)" style="fill:#f2f2f2"/><path d="M911.88,379.85,908,377.93a13.3,13.3,0,0,1-5.87-5.65,18.6,18.6,0,0,1-2-9v-4.17a20.8,20.8,0,0,1,1.94-9.38,13.39,13.39,0,0,1,5.65-5.91,18.25,18.25,0,0,1,8.91-2A14.81,14.81,0,0,1,925,344.1a14.56,14.56,0,0,1,5.3,6.7,27.21,27.21,0,0,1,1.83,10.52v2.42h-26.4V357.9h19.1a12,12,0,0,0-2.47-7,7.11,7.11,0,0,0-5.72-2.52,8.59,8.59,0,0,0-6.78,2.71c-1.6,1.81-2.4,4.36-2.4,7.67v4.7q0,4.6,2.57,7.06t7.29,2.46a12.93,12.93,0,0,0,4.64-.89,13.53,13.53,0,0,0,4.11-2.5l5.06,4.78a21.31,21.31,0,0,1-6.53,4.08,19.52,19.52,0,0,1-7.28,1.44Z" transform="translate(4)" style="fill:#f2f2f2"/><path d="M953.1,379.85l-3-.64a24.86,24.86,0,0,1-5.68-1.92,23.19,23.19,0,0,1-4.87-3.21l4.57-5.31a26,26,0,0,0,6.3,3.42,18,18,0,0,0,6.19,1.14q4.57,0,6.85-1.34a4.33,4.33,0,0,0,2.29-4,3.08,3.08,0,0,0-1.25-2.67,7.18,7.18,0,0,0-3.09-1.19c-1.24-.21-3-.39-5.21-.56h-.64a2.28,2.28,0,0,1-.65-.06h-.6a32,32,0,0,1-6.45-1,8.86,8.86,0,0,1-4.4-2.87,9.21,9.21,0,0,1-1.76-6,11.78,11.78,0,0,1,1.7-6.52,10.14,10.14,0,0,1,5.06-3.9,23.41,23.41,0,0,1,8.42-1.3,30.77,30.77,0,0,1,5.83.53A27.18,27.18,0,0,1,968,344a26.71,26.71,0,0,1,4.87,2.65L968.24,352a26.5,26.5,0,0,0-5.8-2.67,18.42,18.42,0,0,0-5.56-.89A11,11,0,0,0,951,349.7a4.21,4.21,0,0,0-2,3.8,2.55,2.55,0,0,0,1.11,2.25,6.73,6.73,0,0,0,2.81,1c1.13.17,2.74.31,4.83.43h1.49a35.16,35.16,0,0,1,7,1,9.52,9.52,0,0,1,4.85,3.1c1.33,1.55,2,3.79,2,6.7a11.4,11.4,0,0,1-1.81,6.62,10.88,10.88,0,0,1-5.45,3.93,27.12,27.12,0,0,1-9.16,1.32Z" transform="translate(4)" style="fill:#f2f2f2"/><path d="M982.81,342.32h7.7v52h-7.7ZM994,378.2a9.85,9.85,0,0,1-4-4.69l.53-7.74a8.56,8.56,0,0,0,.9,4.07,6.08,6.08,0,0,0,2.63,2.56,8.86,8.86,0,0,0,4.17.89,7.75,7.75,0,0,0,5.9-2.19,8.56,8.56,0,0,0,2.1-6.18v-8a8.89,8.89,0,0,0-2.1-6.31,7.68,7.68,0,0,0-5.9-2.25,9.21,9.21,0,0,0-4.17.86,6,6,0,0,0-2.63,2.51,8.29,8.29,0,0,0-.9,4l-.8-7.13a13.15,13.15,0,0,1,4.65-5,11.88,11.88,0,0,1,6.38-1.76,13.59,13.59,0,0,1,7.11,1.76,11.23,11.23,0,0,1,4.51,5.15,19.7,19.7,0,0,1,1.55,8.16V365a18.72,18.72,0,0,1-1.59,8,11.29,11.29,0,0,1-4.64,5.12,14.49,14.49,0,0,1-7.32,1.76A12,12,0,0,1,994,378.2Z" transform="translate(4)" style="fill:#f2f2f2"/><path d="M1031.16,378a12.72,12.72,0,0,1-5.53-5.5,18.55,18.55,0,0,1-1.91-8.72v-6a18.11,18.11,0,0,1,1.91-8.61,12.66,12.66,0,0,1,5.53-5.45,21.29,21.29,0,0,1,17.44,0,12.71,12.71,0,0,1,5.53,5.45,18.1,18.1,0,0,1,1.9,8.61v6.13a18.22,18.22,0,0,1-1.9,8.64,12.81,12.81,0,0,1-5.53,5.47,21.06,21.06,0,0,1-17.44,0Zm15-7.41a9.55,9.55,0,0,0,2.2-6.7v-6.13a9.37,9.37,0,0,0-2.2-6.67,8.51,8.51,0,0,0-14.71,6.67v6.13a9.51,9.51,0,0,0,2.21,6.7A9.36,9.36,0,0,0,1046.16,370.59Z" transform="translate(4)" style="fill:#f2f2f2"/><path d="M1067,327.49h7.7v51.83H1067Zm3.32,37.78,20.16-22.95h9.06l-29.71,31.58Zm9.1-7.3,4.95-4.85,17.09,26.2h-8.38Z" transform="translate(4)" style="fill:#f2f2f2"/><path d="M1118.47,379.85l-3.85-1.92a13.3,13.3,0,0,1-5.87-5.65,18.6,18.6,0,0,1-2-9v-4.17a20.8,20.8,0,0,1,1.94-9.38,13.39,13.39,0,0,1,5.65-5.91,18.21,18.21,0,0,1,8.9-2,14.79,14.79,0,0,1,8.38,2.31,14.53,14.53,0,0,1,5.31,6.7,27.21,27.21,0,0,1,1.83,10.52v2.42h-26.43V357.9h19.11a12,12,0,0,0-2.48-7,7.11,7.11,0,0,0-5.72-2.52,8.55,8.55,0,0,0-6.77,2.71c-1.6,1.81-2.4,4.36-2.4,7.67v4.7q0,4.6,2.57,7.06t7.28,2.46a13,13,0,0,0,4.65-.89,13.53,13.53,0,0,0,4.11-2.5l5.06,4.78a21.63,21.63,0,0,1-6.53,4.08,19.61,19.61,0,0,1-7.29,1.44Z" transform="translate(4)" style="fill:#f2f2f2"/><path d="M1166.67,342.32h8l7,26.41,9.77-26.41h5.36l9.78,26.41,6.94-26.41h8l-12.07,37h-5.82l-9.55-25.56-9.55,25.56h-5.81Z" transform="translate(4)" style="fill:#f2f2f2"/><path d="M1239.71,379.85l-3.85-1.92a13.3,13.3,0,0,1-5.87-5.65,18.6,18.6,0,0,1-2-9v-4.17a20.69,20.69,0,0,1,2-9.38,13.37,13.37,0,0,1,5.64-5.91,18.25,18.25,0,0,1,8.91-2,14.79,14.79,0,0,1,8.38,2.31,14.56,14.56,0,0,1,5.3,6.7,27.21,27.21,0,0,1,1.83,10.52v2.42h-26.42V357.9h19.1a12,12,0,0,0-2.47-7,7.11,7.11,0,0,0-5.72-2.52,8.59,8.59,0,0,0-6.78,2.71c-1.6,1.81-2.4,4.36-2.4,7.67v4.7q0,4.6,2.57,7.06t7.29,2.46a12.93,12.93,0,0,0,4.64-.89,13.53,13.53,0,0,0,4.11-2.5l5.06,4.78a21.31,21.31,0,0,1-6.53,4.08,19.52,19.52,0,0,1-7.28,1.44Z" transform="translate(4)" style="fill:#f2f2f2"/><path d="M1270.55,327.49h7.7v51.83h-7.7Zm11.17,50.71a9.9,9.9,0,0,1-4-4.69l.53-7.74a8.46,8.46,0,0,0,.91,4.07,6.05,6.05,0,0,0,2.62,2.56,8.86,8.86,0,0,0,4.17.89,7.8,7.8,0,0,0,5.91-2.19,8.63,8.63,0,0,0,2.09-6.18v-8a9,9,0,0,0-2.09-6.31,7.72,7.72,0,0,0-5.91-2.25,9.21,9.21,0,0,0-4.17.86,5.89,5.89,0,0,0-2.62,2.51,8.16,8.16,0,0,0-.91,4l-.79-7.13a13.12,13.12,0,0,1,4.64-5,11.88,11.88,0,0,1,6.38-1.76,13.49,13.49,0,0,1,7.11,1.76,11.23,11.23,0,0,1,4.51,5.15,19.38,19.38,0,0,1,1.55,8.16V365a18.86,18.86,0,0,1-1.58,8,11.37,11.37,0,0,1-4.65,5.12,14.49,14.49,0,0,1-7.32,1.76,12,12,0,0,1-6.38-1.7Z" transform="translate(4)" style="fill:#f2f2f2"/><path d="M1323,379.85l-3-.64a24.86,24.86,0,0,1-5.68-1.92,23.19,23.19,0,0,1-4.87-3.21l4.57-5.31a26,26,0,0,0,6.3,3.42,18,18,0,0,0,6.19,1.14c3,0,5.34-.45,6.85-1.34a4.33,4.33,0,0,0,2.29-4,3.08,3.08,0,0,0-1.25-2.67,7.18,7.18,0,0,0-3.09-1.19c-1.24-.21-3-.39-5.21-.56h-.64a2.28,2.28,0,0,1-.65-.06h-.6a32,32,0,0,1-6.45-1,8.86,8.86,0,0,1-4.4-2.87,9.21,9.21,0,0,1-1.76-6,11.78,11.78,0,0,1,1.7-6.52,10.14,10.14,0,0,1,5.06-3.9,23.41,23.41,0,0,1,8.42-1.3,30.77,30.77,0,0,1,5.83.53,27.18,27.18,0,0,1,5.3,1.59,26.71,26.71,0,0,1,4.87,2.65l-4.64,5.31a26.5,26.5,0,0,0-5.8-2.67,18.42,18.42,0,0,0-5.56-.89,11,11,0,0,0-5.89,1.26,4.21,4.21,0,0,0-2,3.8,2.55,2.55,0,0,0,1.11,2.25,6.73,6.73,0,0,0,2.81,1c1.13.17,2.74.31,4.83.43h1.44a35.16,35.16,0,0,1,7,1,9.52,9.52,0,0,1,4.85,3.1c1.33,1.55,2,3.79,2,6.7a11.4,11.4,0,0,1-1.81,6.62,10.88,10.88,0,0,1-5.45,3.93,27.12,27.12,0,0,1-9.16,1.32Z" transform="translate(4)" style="fill:#f2f2f2"/><path d="M1352.69,327.49h7.7v7.27h-7.7Zm0,14.83h7.7v37h-7.7Z" transform="translate(4)" style="fill:#f2f2f2"/><path d="M1369.07,342.32h17.66v6.56h-17.66Zm6.25,34.7c-1.48-1.65-2.21-4.09-2.21-7.33V331.55h7.7v38.22a3.39,3.39,0,0,0,.56,2.08,2,2,0,0,0,1.67.73h3.69v6.92h-4.45q-4.76,0-7-2.5Z" transform="translate(4)" style="fill:#f2f2f2"/><path d="M1407.91,379.85l-3.85-1.92a13.3,13.3,0,0,1-5.87-5.65,18.6,18.6,0,0,1-2-9v-4.17a20.8,20.8,0,0,1,1.94-9.38,13.39,13.39,0,0,1,5.65-5.91,18.25,18.25,0,0,1,8.91-2,14.79,14.79,0,0,1,8.38,2.31,14.56,14.56,0,0,1,5.3,6.7,27.21,27.21,0,0,1,1.83,10.52v2.42h-26.42V357.9h19.1a12,12,0,0,0-2.48-7,7.08,7.08,0,0,0-5.71-2.52,8.59,8.59,0,0,0-6.78,2.71c-1.6,1.81-2.4,4.36-2.4,7.67v4.7q0,4.6,2.57,7.06t7.29,2.46a12.93,12.93,0,0,0,4.64-.89,13.53,13.53,0,0,0,4.11-2.5l5.06,4.78a21.31,21.31,0,0,1-6.53,4.08,19.52,19.52,0,0,1-7.28,1.44Z" transform="translate(4)" style="fill:#f2f2f2"/><path d="M1449.13,379.85l-3-.64a24.86,24.86,0,0,1-5.68-1.92,22.2,22.2,0,0,1-4.87-3.21l4.57-5.31a26,26,0,0,0,6.3,3.42,18,18,0,0,0,6.19,1.14c3,0,5.34-.45,6.85-1.34a4.37,4.37,0,0,0,2.29-4,3.08,3.08,0,0,0-1.25-2.67,7.18,7.18,0,0,0-3.09-1.19c-1.24-.21-3-.39-5.21-.56h-.65a2.25,2.25,0,0,1-.64-.06h-.6a32.05,32.05,0,0,1-6.46-1,8.83,8.83,0,0,1-4.39-2.87,9.21,9.21,0,0,1-1.76-6,11.78,11.78,0,0,1,1.7-6.52,10.14,10.14,0,0,1,5.06-3.9,23.41,23.41,0,0,1,8.42-1.3,30.77,30.77,0,0,1,5.83.53A27.18,27.18,0,0,1,1464,344a26.71,26.71,0,0,1,4.87,2.65l-4.64,5.31a26.5,26.5,0,0,0-5.8-2.67,18.42,18.42,0,0,0-5.56-.89,11,11,0,0,0-5.89,1.26,4.23,4.23,0,0,0-2,3.8,2.54,2.54,0,0,0,1.12,2.25,6.73,6.73,0,0,0,2.81,1c1.13.17,2.74.31,4.83.43h1.44a35.16,35.16,0,0,1,7,1,9.52,9.52,0,0,1,4.85,3.1c1.33,1.55,2,3.79,2,6.7a11.4,11.4,0,0,1-1.81,6.62,10.9,10.9,0,0,1-5.46,3.93,27.06,27.06,0,0,1-9.15,1.32Z" transform="translate(4)" style="fill:#f2f2f2"/></svg>