<svg id="Layer_1" data-name="Layer 1" xmlns="http://www.w3.org/2000/svg" viewBox="0 0 515.13 75.18">
  <title>logo</title>
  <path d="M51.64,58.39a1.14,1.14,0,0,1-.15.6,1,1,0,0,1-.53.4,4.33,4.33,0,0,1-1,.26,10.77,10.77,0,0,1-3,0,3.88,3.88,0,0,1-1-.26,1,1,0,0,1-.5-.4,1.06,1.06,0,0,1-.16-.6V10.11h-.07L28.55,58.6a1.53,1.53,0,0,1-.31.52,1.71,1.71,0,0,1-.59.36,3.72,3.72,0,0,1-.92.21,8.87,8.87,0,0,1-1.26.07,9.76,9.76,0,0,1-1.32-.09,4.28,4.28,0,0,1-.92-.23,1.61,1.61,0,0,1-.56-.37,1.08,1.08,0,0,1-.28-.47l-16-48.49h0V58.39a1.14,1.14,0,0,1-.15.6,1,1,0,0,1-.53.4,4.9,4.9,0,0,1-1,.26,8.91,8.91,0,0,1-1.55.11,8.46,8.46,0,0,1-1.51-.11,3.88,3.88,0,0,1-1-.26.9.9,0,0,1-.5-.4,1.38,1.38,0,0,1-.13-.6v-51A3.44,3.44,0,0,1,.84,4.82a2.6,2.6,0,0,1,1.82-.77H6.54a7.33,7.33,0,0,1,2.08.26,4.23,4.23,0,0,1,1.56.81A4.51,4.51,0,0,1,11.3,6.53a10.37,10.37,0,0,1,.78,2L25.69,48.71h.18L40,8.71a12.3,12.3,0,0,1,.9-2.19,5.32,5.32,0,0,1,1.06-1.43,3.35,3.35,0,0,1,1.28-.77,5.05,5.05,0,0,1,1.64-.24h4.06A3,3,0,0,1,50,4.27a2.16,2.16,0,0,1,.86.6,3.35,3.35,0,0,1,.58,1,4.59,4.59,0,0,1,.22,1.52Z" transform="translate(0 0)" style="fill: #fff"/>
  <path d="M88.4,58.47a1,1,0,0,1-.3.78,1.85,1.85,0,0,1-.8.38,6.3,6.3,0,0,1-1.5.13,7.14,7.14,0,0,1-1.53-.13,1.68,1.68,0,0,1-.82-.38,1.06,1.06,0,0,1-.26-.78V54.62a16.58,16.58,0,0,1-4.82,4.2,11.21,11.21,0,0,1-5.6,1.5,13.26,13.26,0,0,1-4.71-.8,9.72,9.72,0,0,1-3.59-2.29,10.33,10.33,0,0,1-2.31-3.68,14,14,0,0,1-.83-5,13,13,0,0,1,1.12-5.63,10.57,10.57,0,0,1,3.26-4,14.52,14.52,0,0,1,5.21-2.38,27.79,27.79,0,0,1,6.92-.79h4.55v-3A16.85,16.85,0,0,0,82,28.81,7.16,7.16,0,0,0,80.68,26a5.46,5.46,0,0,0-2.32-1.71,9.4,9.4,0,0,0-3.52-.58,12.08,12.08,0,0,0-4,.62,18.36,18.36,0,0,0-3.11,1.37c-.89.5-1.64,1-2.24,1.37a2.77,2.77,0,0,1-1.33.62.76.76,0,0,1-.52-.17,1.48,1.48,0,0,1-.38-.51,3,3,0,0,1-.24-.88A7.68,7.68,0,0,1,62.93,25a9.11,9.11,0,0,1,.14-1.73,2.56,2.56,0,0,1,.63-1.18,8.29,8.29,0,0,1,1.7-1.31,19,19,0,0,1,2.79-1.37,22.94,22.94,0,0,1,3.44-1,17.83,17.83,0,0,1,3.78-.45,17,17,0,0,1,6,.94,9.52,9.52,0,0,1,4,2.76,11.28,11.28,0,0,1,2.23,4.52,25.21,25.21,0,0,1,.7,6.3Zm-6-17.6H77.22a16.51,16.51,0,0,0-4.32.49,8.22,8.22,0,0,0-3,1.46,5.74,5.74,0,0,0-1.77,2.31,7.91,7.91,0,0,0-.57,3.11A6.74,6.74,0,0,0,69.19,53a5.86,5.86,0,0,0,4.56,1.78,7.62,7.62,0,0,0,4.42-1.41A20.39,20.39,0,0,0,82.44,49Z" transform="translate(0 0)" style="fill: #fff"/>
  <path d="M127.91,58.43a1.09,1.09,0,0,1-.15.58,1.19,1.19,0,0,1-.48.41,2.86,2.86,0,0,1-.91.25,9.07,9.07,0,0,1-1.47.09,9.44,9.44,0,0,1-1.5-.09,2.92,2.92,0,0,1-.92-.25,1,1,0,0,1-.62-1V35.86a25.66,25.66,0,0,0-.44-5.32,11.6,11.6,0,0,0-1.28-3.47A6,6,0,0,0,118,24.85a6.13,6.13,0,0,0-3.1-.78,7.11,7.11,0,0,0-4.55,1.85,27,27,0,0,0-4.76,5.53v27a1.09,1.09,0,0,1-.15.58,1.16,1.16,0,0,1-.47.41,2.92,2.92,0,0,1-.92.25,9.44,9.44,0,0,1-1.5.09,9.07,9.07,0,0,1-1.47-.09,3,3,0,0,1-.93-.25,1,1,0,0,1-.48-.41,1.17,1.17,0,0,1-.13-.58V19.92a1.43,1.43,0,0,1,.11-.58,1.07,1.07,0,0,1,.44-.43,2.27,2.27,0,0,1,.85-.26,10.17,10.17,0,0,1,1.35-.06,10,10,0,0,1,1.34.06,2,2,0,0,1,.82.26,1.09,1.09,0,0,1,.42.43,1.17,1.17,0,0,1,.13.58V25a21.52,21.52,0,0,1,5.56-5.33,10.55,10.55,0,0,1,5.55-1.75,10.87,10.87,0,0,1,5.56,1.31,10.49,10.49,0,0,1,3.64,3.49,14.79,14.79,0,0,1,2,5.12,35.73,35.73,0,0,1,.61,7Z" transform="translate(0 0)" style="fill: #fff"/>
  <path d="M167.34,58.43a1.09,1.09,0,0,1-.15.58,1.16,1.16,0,0,1-.47.41,2.92,2.92,0,0,1-.92.25,9.07,9.07,0,0,1-1.47.09,9.44,9.44,0,0,1-1.5-.09,2.86,2.86,0,0,1-.91-.25,1.19,1.19,0,0,1-.48-.41,1.09,1.09,0,0,1-.15-.58V35.86a25.66,25.66,0,0,0-.44-5.32,11.6,11.6,0,0,0-1.28-3.47,5.83,5.83,0,0,0-5.28-3,7.09,7.09,0,0,0-4.52,1.85A27.08,27.08,0,0,0,145,31.45v27a1.08,1.08,0,0,1-.14.58,1.19,1.19,0,0,1-.48.41,2.92,2.92,0,0,1-.92.25,9.44,9.44,0,0,1-1.5.09,8.88,8.88,0,0,1-1.46-.09,3.12,3.12,0,0,1-.94-.25,1,1,0,0,1-.49-.44,1.17,1.17,0,0,1-.13-.58V19.92a1.28,1.28,0,0,1,.11-.58,1,1,0,0,1,.44-.43,2.28,2.28,0,0,1,.84-.26,15.11,15.11,0,0,1,2.69,0,1.88,1.88,0,0,1,.83.26,1.44,1.44,0,0,1,.42.43,1.29,1.29,0,0,1,.13.58V25A21.16,21.16,0,0,1,150,19.67a10.51,10.51,0,0,1,5.57-1.76,10.74,10.74,0,0,1,5.55,1.32,10.43,10.43,0,0,1,3.68,3.52,15.11,15.11,0,0,1,2,5.17,35.72,35.72,0,0,1,.6,7Z" transform="translate(0 0)" style="fill: #fff"/>
  <path d="M205.46,56.46a10.19,10.19,0,0,1-.08,1.35,3.2,3.2,0,0,1-.25,1,1.48,1.48,0,0,1-.43.56.78.78,0,0,1-.53.17H181.41a2.37,2.37,0,0,1-1.59-.66,3,3,0,0,1-.75-2.34V7.07a3,3,0,0,1,.75-2.34,2.37,2.37,0,0,1,1.59-.66h22.51a.93.93,0,0,1,.53.17,1.2,1.2,0,0,1,.38.56,4.29,4.29,0,0,1,.24,1,8.71,8.71,0,0,1,.09,1.44,10.2,10.2,0,0,1-.09,1.35,3.82,3.82,0,0,1-.24.94,1.07,1.07,0,0,1-.38.53.85.85,0,0,1-.53.18H185.37V27.59h15.91a.86.86,0,0,1,.53.19,1.52,1.52,0,0,1,.4.54,3.1,3.1,0,0,1,.24.94,11.1,11.1,0,0,1,.07,1.41,9.88,9.88,0,0,1-.07,1.33,2.79,2.79,0,0,1-.24.9,1.07,1.07,0,0,1-.4.49,1,1,0,0,1-.53.15H185.37V53.38h18.8a.78.78,0,0,1,.53.17,1.48,1.48,0,0,1,.43.53,3.2,3.2,0,0,1,.25,1A10.64,10.64,0,0,1,205.46,56.46Z" transform="translate(0 0)" style="fill: #2dcace"/>
  <path d="M242.18,58.43a1.25,1.25,0,0,1-.13.6.92.92,0,0,1-.44.41,3,3,0,0,1-.82.23,6.52,6.52,0,0,1-1.25.09,6.83,6.83,0,0,1-1.28-.09,3.15,3.15,0,0,1-.85-.23,1,1,0,0,1-.47-.41,1.14,1.14,0,0,1-.15-.6v-5.1a23,23,0,0,1-5.41,5.14,10.88,10.88,0,0,1-6.13,1.85,11.28,11.28,0,0,1-6.2-1.65,12.7,12.7,0,0,1-4.16-4.46,21.57,21.57,0,0,1-2.33-6.6,43,43,0,0,1-.73-8,40.69,40.69,0,0,1,.92-9,21.28,21.28,0,0,1,2.71-6.83,12.7,12.7,0,0,1,4.45-4.35,12.38,12.38,0,0,1,6.16-1.51,9.83,9.83,0,0,1,5.3,1.48,19.41,19.41,0,0,1,4.7,4.34V1.37a1.44,1.44,0,0,1,.13-.58.85.85,0,0,1,.5-.43,4.91,4.91,0,0,1,.93-.25A7.76,7.76,0,0,1,239.07,0a8.42,8.42,0,0,1,1.5.11,4.18,4.18,0,0,1,.92.25,1.13,1.13,0,0,1,.49.43,1.06,1.06,0,0,1,.17.58Zm-6.11-27.12a25.91,25.91,0,0,0-4.74-5.39,7.5,7.5,0,0,0-4.79-1.87,6.1,6.1,0,0,0-3.92,1.29,9.32,9.32,0,0,0-2.55,3.38,17.62,17.62,0,0,0-1.46,4.76,31.38,31.38,0,0,0-.46,5.39,43.42,43.42,0,0,0,.38,5.7,19.27,19.27,0,0,0,1.34,5A9.28,9.28,0,0,0,222.35,53a6,6,0,0,0,4,1.31,7.12,7.12,0,0,0,2.33-.39A8.06,8.06,0,0,0,231,52.64a18.08,18.08,0,0,0,2.45-2.34,32.07,32.07,0,0,0,2.71-3.53Z" transform="translate(0 0)" style="fill: #2dcace"/>
  <path d="M280.92,21.63a4.89,4.89,0,0,1-.35,2.17,1,1,0,0,1-.9.66h-4.73a9,9,0,0,1,1.83,3.46,14.85,14.85,0,0,1,.51,3.87,17.43,17.43,0,0,1-.91,5.91,12.06,12.06,0,0,1-2.63,4.35,11.35,11.35,0,0,1-4.05,2.72,13.63,13.63,0,0,1-5.2,1,11.61,11.61,0,0,1-3.83-.63,7.37,7.37,0,0,1-2.8-1.56,7,7,0,0,0-1.09,1.66,5.53,5.53,0,0,0-.43,2.27,3.05,3.05,0,0,0,1.2,2.48,5.12,5.12,0,0,0,3.17,1.07l8.61.43a15.77,15.77,0,0,1,4.51.79,10.57,10.57,0,0,1,3.55,2,9.11,9.11,0,0,1,2.35,3.21,10.85,10.85,0,0,1,.84,4.43,13.69,13.69,0,0,1-.95,5.06,11.57,11.57,0,0,1-2.92,4.22,13.89,13.89,0,0,1-5,2.87,21.84,21.84,0,0,1-7.18,1,25.56,25.56,0,0,1-6.8-.79,13.51,13.51,0,0,1-4.6-2.17,8,8,0,0,1-2.6-3.27,10.5,10.5,0,0,1-.81-4.14A13.28,13.28,0,0,1,250,62a11.21,11.21,0,0,1,.9-2.53,13.28,13.28,0,0,1,1.5-2.29A20,20,0,0,1,254.48,55a7,7,0,0,1-2.66-2.7,7.41,7.41,0,0,1-.86-3.51,11.34,11.34,0,0,1,.91-4.67,15.77,15.77,0,0,1,2.28-3.69,13,13,0,0,1-1.8-3.58,15.36,15.36,0,0,1-.66-4.81,17.53,17.53,0,0,1,1-5.92,13.13,13.13,0,0,1,2.64-4.41,11.59,11.59,0,0,1,4-2.76,13.57,13.57,0,0,1,5.15-1,18.74,18.74,0,0,1,2.8.2,16.83,16.83,0,0,1,2.44.53h10a1,1,0,0,1,.93.71A5.66,5.66,0,0,1,280.92,21.63Zm-6.42,40.7a4.56,4.56,0,0,0-1.73-3.83,7.89,7.89,0,0,0-4.7-1.44l-8.54-.34a16.5,16.5,0,0,0-1.92,2,11.13,11.13,0,0,0-1.19,1.84,6.67,6.67,0,0,0-.61,1.74,9.45,9.45,0,0,0-.16,1.76,4.62,4.62,0,0,0,2.42,4.22,13.34,13.34,0,0,0,6.71,1.46,14.6,14.6,0,0,0,4.6-.62,8.49,8.49,0,0,0,3-1.65A6.15,6.15,0,0,0,274,65.11a8,8,0,0,0,.5-2.78Zm-3-30.54a9.32,9.32,0,0,0-1.85-6.15,7.28,7.28,0,0,0-8.32-1.52A6,6,0,0,0,259.17,26a8.42,8.42,0,0,0-1.28,2.77,12.09,12.09,0,0,0-.43,3.27,9,9,0,0,0,1.85,6,6.41,6.41,0,0,0,5.19,2.18,6.85,6.85,0,0,0,3.12-.66,6.16,6.16,0,0,0,2.15-1.84,8.13,8.13,0,0,0,1.3-2.72,12,12,0,0,0,.41-3.21Z" transform="translate(0 0)" style="fill: #2dcace"/>
  <path d="M316.21,37.48a3.2,3.2,0,0,1-.72,2.38,2.27,2.27,0,0,1-1.64.71H292.13a27.36,27.36,0,0,0,.55,5.78,12.17,12.17,0,0,0,1.84,4.41,8.46,8.46,0,0,0,3.36,2.83,11.62,11.62,0,0,0,5,1,17.49,17.49,0,0,0,4.2-.45,22.26,22.26,0,0,0,3.19-1c.89-.37,1.63-.71,2.21-1a3.2,3.2,0,0,1,1.3-.45.75.75,0,0,1,.46.15,1,1,0,0,1,.32.45,3.38,3.38,0,0,1,.16.84c0,.43.06.87.06,1.3v1a2,2,0,0,1-.09.73,2.7,2.7,0,0,1-.18.57,2.41,2.41,0,0,1-.33.5A6.29,6.29,0,0,1,313,58a15.62,15.62,0,0,1-2.56,1,30.94,30.94,0,0,1-3.65.92,22.48,22.48,0,0,1-4.41.41A17.79,17.79,0,0,1,295.23,59a13.33,13.33,0,0,1-5.16-3.94,17.88,17.88,0,0,1-3.15-6.56,34.89,34.89,0,0,1-1.07-9.16A33.29,33.29,0,0,1,287,30.4a20.15,20.15,0,0,1,3.17-6.72,14,14,0,0,1,5-4.24,14.4,14.4,0,0,1,6.57-1.52,13.89,13.89,0,0,1,6.61,1.46,12.74,12.74,0,0,1,4.46,3.95,16.93,16.93,0,0,1,2.59,5.78,29.18,29.18,0,0,1,.82,7.09Zm-6.08-2.1c.07-3.71-.63-6.62-2.12-8.73a7.54,7.54,0,0,0-6.62-3.17,7.69,7.69,0,0,0-3.95,1,9,9,0,0,0-2.84,2.61,13,13,0,0,0-1.77,3.79,18.2,18.2,0,0,0-.7,4.52Z" transform="translate(0 0)" style="fill: #2dcace"/>
  <g>
    <path d="M369.88,31a48.34,48.34,0,0,1-1.46,12.57,24.49,24.49,0,0,1-4.27,8.91,17.38,17.38,0,0,1-6.88,5.29,24.23,24.23,0,0,1-9.71,1.76h-9.31a2.11,2.11,0,0,1-1.48-.66,3.15,3.15,0,0,1-.7-2.34V7.11a3.13,3.13,0,0,1,.7-2.34,2.11,2.11,0,0,1,1.48-.66h9.95A22.5,22.5,0,0,1,357.85,6a17.73,17.73,0,0,1,6.61,5.36,24.28,24.28,0,0,1,4,8.46A41.93,41.93,0,0,1,369.88,31Zm-6.15.3a38.11,38.11,0,0,0-.88-8.37,20.16,20.16,0,0,0-2.77-6.71,13.54,13.54,0,0,0-4.78-4.41,15.31,15.31,0,0,0-7.44-1.59h-5.94V53.37h6A16.85,16.85,0,0,0,355,52,12,12,0,0,0,359.86,48a19.33,19.33,0,0,0,2.9-6.87A43.14,43.14,0,0,0,363.73,31.31Z" transform="translate(0 0)" style="fill: #2dcace"/>
    <path d="M404.33,37.52a3.44,3.44,0,0,1-.66,2.38,2.05,2.05,0,0,1-1.52.71H382a29.8,29.8,0,0,0,.51,5.78,12.47,12.47,0,0,0,1.71,4.41,8.05,8.05,0,0,0,3.11,2.83,10,10,0,0,0,4.67,1,15.86,15.86,0,0,0,3.9-.44,21,21,0,0,0,2.95-1c.83-.37,1.51-.71,2.05-1a2.83,2.83,0,0,1,1.21-.45.68.68,0,0,1,.43.15,1,1,0,0,1,.29.45,3.55,3.55,0,0,1,.15.84c0,.35.05.79.05,1.3s0,.7,0,1a6.41,6.41,0,0,1-.09.72,2,2,0,0,1-.17.58,2.88,2.88,0,0,1-.3.5,5.55,5.55,0,0,1-1.11.77A15,15,0,0,1,399,59a27.39,27.39,0,0,1-3.38.92,19.77,19.77,0,0,1-4.09.4A15.5,15.5,0,0,1,384.88,59a12.49,12.49,0,0,1-4.77-3.94,18.54,18.54,0,0,1-2.93-6.56,38.41,38.41,0,0,1-1-9.17,35.88,35.88,0,0,1,1-8.93,20.72,20.72,0,0,1,2.94-6.72,13.27,13.27,0,0,1,4.64-4.24A12.44,12.44,0,0,1,390.88,18,12.12,12.12,0,0,1,397,19.44a12.29,12.29,0,0,1,4.16,3.92,17.48,17.48,0,0,1,2.4,5.79,31.46,31.46,0,0,1,.76,7.09Zm-5.64-2.1c.07-3.71-.59-6.62-2-8.74a6.87,6.87,0,0,0-6.14-3.17,6.73,6.73,0,0,0-3.66,1,8.61,8.61,0,0,0-2.63,2.61,13.2,13.2,0,0,0-1.64,3.79,19.19,19.19,0,0,0-.65,4.52Z" transform="translate(0 0)" style="fill: #2dcace"/>
    <path d="M432.06,48a14.86,14.86,0,0,1-.87,5.27,10.52,10.52,0,0,1-2.46,3.9,10.39,10.39,0,0,1-3.81,2.4,14,14,0,0,1-4.86.81A14.17,14.17,0,0,1,417,60a14.53,14.53,0,0,1-2.65-.81,11.79,11.79,0,0,1-2-1,6.08,6.08,0,0,1-1.19-1,2.79,2.79,0,0,1-.55-1.2,10.65,10.65,0,0,1-.16-2.1,13.12,13.12,0,0,1,.06-1.37,6.06,6.06,0,0,1,.17-.9,1,1,0,0,1,.29-.49.68.68,0,0,1,.43-.15,2.18,2.18,0,0,1,1.1.57c.49.39,1.09.81,1.8,1.27a14.54,14.54,0,0,0,2.53,1.26,9.05,9.05,0,0,0,3.37.58,8,8,0,0,0,2.58-.39,5.54,5.54,0,0,0,2-1.13,4.83,4.83,0,0,0,1.31-1.91,7.31,7.31,0,0,0,.46-2.74,5.3,5.3,0,0,0-.66-2.74,7.24,7.24,0,0,0-1.75-2,13.53,13.53,0,0,0-2.45-1.52l-2.8-1.39A28.77,28.77,0,0,1,416,39.26,11.4,11.4,0,0,1,413.58,37a10.52,10.52,0,0,1-1.75-3.17,12.87,12.87,0,0,1-.67-4.41,13.4,13.4,0,0,1,.7-4.35,10.07,10.07,0,0,1,5.57-6.15,11.74,11.74,0,0,1,4.88-.94,11.89,11.89,0,0,1,2.44.25,14.51,14.51,0,0,1,2.21.65,8.76,8.76,0,0,1,1.68.83,7,7,0,0,1,1.06.8,2,2,0,0,1,.47.59,2.17,2.17,0,0,1,.17.58c0,.22.07.48.11.8s.05.7.05,1.15,0,.91-.05,1.27a4.78,4.78,0,0,1-.17.87,1.22,1.22,0,0,1-.29.5.57.57,0,0,1-.38.15,1.71,1.71,0,0,1-.88-.47,11.37,11.37,0,0,0-1.5-1,15,15,0,0,0-2.15-1,8.09,8.09,0,0,0-2.84-.47,7.24,7.24,0,0,0-2.52.41A4.73,4.73,0,0,0,417.94,25a5.12,5.12,0,0,0-1.05,1.78,6.73,6.73,0,0,0-.36,2.23,5.44,5.44,0,0,0,.68,2.81,7.25,7.25,0,0,0,1.77,2,13.93,13.93,0,0,0,2.48,1.54l2.83,1.41a32.73,32.73,0,0,1,2.86,1.63,11.09,11.09,0,0,1,2.5,2.19,10.11,10.11,0,0,1,1.75,3.08A12.46,12.46,0,0,1,432.06,48Z" transform="translate(0 0)" style="fill: #2dcace"/>
    <path d="M446.33,6.89a5.52,5.52,0,0,1-.75,3.39,4.62,4.62,0,0,1-5.45,0A5.41,5.41,0,0,1,439.4,7a5.52,5.52,0,0,1,.75-3.39,4.62,4.62,0,0,1,5.45,0A5.41,5.41,0,0,1,446.33,6.89Zm-.65,51.58a1.16,1.16,0,0,1-.13.58,1.17,1.17,0,0,1-.44.41,2.88,2.88,0,0,1-.85.25,8.94,8.94,0,0,1-1.4.09,8.65,8.65,0,0,1-1.36-.09,3,3,0,0,1-.86-.25,1,1,0,0,1-.44-.41,1.28,1.28,0,0,1-.12-.58V19.92a1.31,1.31,0,0,1,.12-.56.92.92,0,0,1,.44-.43,2.93,2.93,0,0,1,.86-.26,10.25,10.25,0,0,1,1.36-.08,10.58,10.58,0,0,1,1.4.08,2.86,2.86,0,0,1,.85.26,1.07,1.07,0,0,1,.44.43,1.18,1.18,0,0,1,.13.56Z" transform="translate(0 0)" style="fill: #2dcace"/>
    <path d="M481.6,21.67a5.37,5.37,0,0,1-.32,2.16c-.22.45-.5.67-.84.67h-4.38a9.39,9.39,0,0,1,1.67,3.4,16,16,0,0,1,.47,3.88,18.68,18.68,0,0,1-.85,5.91A11.94,11.94,0,0,1,474.92,42a10.52,10.52,0,0,1-3.75,2.72,12,12,0,0,1-4.83.94,10,10,0,0,1-3.55-.62,6.84,6.84,0,0,1-2.6-1.56,7,7,0,0,0-1,1.76,6.1,6.1,0,0,0-.39,2.27A3.2,3.2,0,0,0,459.9,50a4.6,4.6,0,0,0,2.94,1.07l8,.43a13.5,13.5,0,0,1,4.18.79,9.52,9.52,0,0,1,3.29,2,9,9,0,0,1,2.18,3.21,11.64,11.64,0,0,1,.78,4.43,14.75,14.75,0,0,1-.88,5.06,11.54,11.54,0,0,1-2.71,4.22A12.7,12.7,0,0,1,473,74.13a19.08,19.08,0,0,1-6.66,1.05,21.82,21.82,0,0,1-6.31-.8,12.18,12.18,0,0,1-4.26-2.16,8,8,0,0,1-2.41-3.28,11.19,11.19,0,0,1-.75-4.13,13.69,13.69,0,0,1,.27-2.74,11.37,11.37,0,0,1,.83-2.53,12.67,12.67,0,0,1,1.4-2.29,18.85,18.85,0,0,1,1.92-2.16,6.85,6.85,0,0,1-2.47-2.7,7.94,7.94,0,0,1-.8-3.52,12.21,12.21,0,0,1,.85-4.66,16,16,0,0,1,2.11-3.69,13.52,13.52,0,0,1-1.66-3.58,16.41,16.41,0,0,1-.62-4.82,18.39,18.39,0,0,1,.89-5.91,13,13,0,0,1,2.44-4.41A10.58,10.58,0,0,1,461.57,19a11.59,11.59,0,0,1,4.77-1,16.25,16.25,0,0,1,2.6.2,13.6,13.6,0,0,1,2.26.53h9.24a.94.94,0,0,1,.87.71A6.1,6.1,0,0,1,481.6,21.67Zm-6,40.7A4.74,4.74,0,0,0,474,58.53a7,7,0,0,0-4.37-1.43l-7.91-.34a16.38,16.38,0,0,0-1.79,2,11.57,11.57,0,0,0-1.1,1.84,7.18,7.18,0,0,0-.56,1.74,10.08,10.08,0,0,0-.16,1.75,4.68,4.68,0,0,0,2.25,4.22,11.52,11.52,0,0,0,6.25,1.44,12.7,12.7,0,0,0,4.26-.62,7.7,7.7,0,0,0,2.77-1.65,6,6,0,0,0,1.51-2.36A8.32,8.32,0,0,0,475.65,62.37Zm-2.82-30.55a9.81,9.81,0,0,0-1.71-6.14,5.83,5.83,0,0,0-4.88-2.21,5.64,5.64,0,0,0-2.84.69,5.79,5.79,0,0,0-2,1.88,8.84,8.84,0,0,0-1.19,2.76,13.58,13.58,0,0,0-.39,3.28,9.45,9.45,0,0,0,1.72,6,5.73,5.73,0,0,0,4.8,2.18,6,6,0,0,0,2.89-.66,5.66,5.66,0,0,0,2-1.84A8.61,8.61,0,0,0,472.44,35,13.09,13.09,0,0,0,472.83,31.82Z" transform="translate(0 0)" style="fill: #2dcace"/>
    <path d="M515.14,58.47a1.16,1.16,0,0,1-.14.58,1.17,1.17,0,0,1-.44.41,2.88,2.88,0,0,1-.85.25,8.56,8.56,0,0,1-1.36.09,8.71,8.71,0,0,1-1.39-.09,2.7,2.7,0,0,1-.85-.25,1,1,0,0,1-.44-.41,1.06,1.06,0,0,1-.14-.58V35.89a27.86,27.86,0,0,0-.41-5.31,12.61,12.61,0,0,0-1.19-3.47,5.77,5.77,0,0,0-2-2.23,5.36,5.36,0,0,0-2.87-.77A6.33,6.33,0,0,0,498.83,26a26.56,26.56,0,0,0-4.42,5.52v27a1.16,1.16,0,0,1-.14.58,1.1,1.1,0,0,1-.44.41,2.79,2.79,0,0,1-.85.25,8.8,8.8,0,0,1-1.39.09,8.48,8.48,0,0,1-1.36-.09,3.13,3.13,0,0,1-.87-.25,1,1,0,0,1-.44-.41,1.28,1.28,0,0,1-.12-.58V19.92a1.59,1.59,0,0,1,.1-.58,1,1,0,0,1,.41-.43,1.94,1.94,0,0,1,.78-.26,13.05,13.05,0,0,1,2.5,0,1.7,1.7,0,0,1,.77.26,1.21,1.21,0,0,1,.39.43,1.25,1.25,0,0,1,.12.58V25A20.56,20.56,0,0,1,499,19.68,9.32,9.32,0,0,1,504.19,18a9.54,9.54,0,0,1,5.15,1.3,10.12,10.12,0,0,1,3.38,3.5,15.69,15.69,0,0,1,1.85,5.11,37.61,37.61,0,0,1,.57,7.05Z" transform="translate(0 0)" style="fill: #2dcace"/>
  </g>
</svg>
